<?xml version="1.0" encoding="utf-8" standalone="no"?>
<!DOCTYPE svg PUBLIC "-//W3C//DTD SVG 1.1//EN"
  "http://www.w3.org/Graphics/SVG/1.1/DTD/svg11.dtd">
<!-- Created with matplotlib (https://matplotlib.org/) -->
<svg height="188.64pt" version="1.1" viewBox="0 0 260.64 188.64" width="260.64pt" xmlns="http://www.w3.org/2000/svg" xmlns:xlink="http://www.w3.org/1999/xlink">
 <defs>
  <style type="text/css">
*{stroke-linecap:butt;stroke-linejoin:round;white-space:pre;}
  </style>
 </defs>
 <g id="figure_1">
  <g id="patch_1">
   <path d="M 0 188.64 
L 260.64 188.64 
L 260.64 0 
L 0 0 
z
" style="fill:#ffffff;"/>
  </g>
  <g id="axes_1">
   <g id="patch_2">
    <path d="M 32.58 167.8896 
L 234.576 167.8896 
L 234.576 22.6368 
L 32.58 22.6368 
z
" style="fill:#ffffff;"/>
   </g>
   <g id="matplotlib.axis_1">
    <g id="xtick_1">
     <g id="line2d_1">
      <defs>
       <path d="M 0 0 
L 0 3.5 
" id="mdd7b1e7231" style="stroke:#000000;stroke-width:0.8;"/>
      </defs>
      <g>
       <use style="stroke:#000000;stroke-width:0.8;" x="41.761636" xlink:href="#mdd7b1e7231" y="167.8896"/>
      </g>
     </g>
     <g id="text_1">
      <!-- 0.0 -->
      <defs>
       <path d="M 31.78125 66.40625 
Q 24.171875 66.40625 20.328125 58.90625 
Q 16.5 51.421875 16.5 36.375 
Q 16.5 21.390625 20.328125 13.890625 
Q 24.171875 6.390625 31.78125 6.390625 
Q 39.453125 6.390625 43.28125 13.890625 
Q 47.125 21.390625 47.125 36.375 
Q 47.125 51.421875 43.28125 58.90625 
Q 39.453125 66.40625 31.78125 66.40625 
z
M 31.78125 74.21875 
Q 44.046875 74.21875 50.515625 64.515625 
Q 56.984375 54.828125 56.984375 36.375 
Q 56.984375 17.96875 50.515625 8.265625 
Q 44.046875 -1.421875 31.78125 -1.421875 
Q 19.53125 -1.421875 13.0625 8.265625 
Q 6.59375 17.96875 6.59375 36.375 
Q 6.59375 54.828125 13.0625 64.515625 
Q 19.53125 74.21875 31.78125 74.21875 
z
" id="DejaVuSans-48"/>
       <path d="M 10.6875 12.40625 
L 21 12.40625 
L 21 0 
L 10.6875 0 
z
" id="DejaVuSans-46"/>
      </defs>
      <g transform="translate(33.810074 182.488038)scale(0.1 -0.1)">
       <use xlink:href="#DejaVuSans-48"/>
       <use x="63.623047" xlink:href="#DejaVuSans-46"/>
       <use x="95.410156" xlink:href="#DejaVuSans-48"/>
      </g>
     </g>
    </g>
    <g id="xtick_2">
     <g id="line2d_2">
      <g>
       <use style="stroke:#000000;stroke-width:0.8;" x="87.669818" xlink:href="#mdd7b1e7231" y="167.8896"/>
      </g>
     </g>
     <g id="text_2">
      <!-- 0.5 -->
      <defs>
       <path d="M 10.796875 72.90625 
L 49.515625 72.90625 
L 49.515625 64.59375 
L 19.828125 64.59375 
L 19.828125 46.734375 
Q 21.96875 47.46875 24.109375 47.828125 
Q 26.265625 48.1875 28.421875 48.1875 
Q 40.625 48.1875 47.75 41.5 
Q 54.890625 34.8125 54.890625 23.390625 
Q 54.890625 11.625 47.5625 5.09375 
Q 40.234375 -1.421875 26.90625 -1.421875 
Q 22.3125 -1.421875 17.546875 -0.640625 
Q 12.796875 0.140625 7.71875 1.703125 
L 7.71875 11.625 
Q 12.109375 9.234375 16.796875 8.0625 
Q 21.484375 6.890625 26.703125 6.890625 
Q 35.15625 6.890625 40.078125 11.328125 
Q 45.015625 15.765625 45.015625 23.390625 
Q 45.015625 31 40.078125 35.4375 
Q 35.15625 39.890625 26.703125 39.890625 
Q 22.75 39.890625 18.8125 39.015625 
Q 14.890625 38.140625 10.796875 36.28125 
z
" id="DejaVuSans-53"/>
      </defs>
      <g transform="translate(79.718256 182.488038)scale(0.1 -0.1)">
       <use xlink:href="#DejaVuSans-48"/>
       <use x="63.623047" xlink:href="#DejaVuSans-46"/>
       <use x="95.410156" xlink:href="#DejaVuSans-53"/>
      </g>
     </g>
    </g>
    <g id="xtick_3">
     <g id="line2d_3">
      <g>
       <use style="stroke:#000000;stroke-width:0.8;" x="133.578" xlink:href="#mdd7b1e7231" y="167.8896"/>
      </g>
     </g>
     <g id="text_3">
      <!-- 1.0 -->
      <defs>
       <path d="M 12.40625 8.296875 
L 28.515625 8.296875 
L 28.515625 63.921875 
L 10.984375 60.40625 
L 10.984375 69.390625 
L 28.421875 72.90625 
L 38.28125 72.90625 
L 38.28125 8.296875 
L 54.390625 8.296875 
L 54.390625 0 
L 12.40625 0 
z
" id="DejaVuSans-49"/>
      </defs>
      <g transform="translate(125.626437 182.488038)scale(0.1 -0.1)">
       <use xlink:href="#DejaVuSans-49"/>
       <use x="63.623047" xlink:href="#DejaVuSans-46"/>
       <use x="95.410156" xlink:href="#DejaVuSans-48"/>
      </g>
     </g>
    </g>
    <g id="xtick_4">
     <g id="line2d_4">
      <g>
       <use style="stroke:#000000;stroke-width:0.8;" x="179.486182" xlink:href="#mdd7b1e7231" y="167.8896"/>
      </g>
     </g>
     <g id="text_4">
      <!-- 1.5 -->
      <g transform="translate(171.534619 182.488038)scale(0.1 -0.1)">
       <use xlink:href="#DejaVuSans-49"/>
       <use x="63.623047" xlink:href="#DejaVuSans-46"/>
       <use x="95.410156" xlink:href="#DejaVuSans-53"/>
      </g>
     </g>
    </g>
    <g id="xtick_5">
     <g id="line2d_5">
      <g>
       <use style="stroke:#000000;stroke-width:0.8;" x="225.394364" xlink:href="#mdd7b1e7231" y="167.8896"/>
      </g>
     </g>
     <g id="text_5">
      <!-- 2.0 -->
      <defs>
       <path d="M 19.1875 8.296875 
L 53.609375 8.296875 
L 53.609375 0 
L 7.328125 0 
L 7.328125 8.296875 
Q 12.9375 14.109375 22.625 23.890625 
Q 32.328125 33.6875 34.8125 36.53125 
Q 39.546875 41.84375 41.421875 45.53125 
Q 43.3125 49.21875 43.3125 52.78125 
Q 43.3125 58.59375 39.234375 62.25 
Q 35.15625 65.921875 28.609375 65.921875 
Q 23.96875 65.921875 18.8125 64.3125 
Q 13.671875 62.703125 7.8125 59.421875 
L 7.8125 69.390625 
Q 13.765625 71.78125 18.9375 73 
Q 24.125 74.21875 28.421875 74.21875 
Q 39.75 74.21875 46.484375 68.546875 
Q 53.21875 62.890625 53.21875 53.421875 
Q 53.21875 48.921875 51.53125 44.890625 
Q 49.859375 40.875 45.40625 35.40625 
Q 44.1875 33.984375 37.640625 27.21875 
Q 31.109375 20.453125 19.1875 8.296875 
z
" id="DejaVuSans-50"/>
      </defs>
      <g transform="translate(217.442801 182.488038)scale(0.1 -0.1)">
       <use xlink:href="#DejaVuSans-50"/>
       <use x="63.623047" xlink:href="#DejaVuSans-46"/>
       <use x="95.410156" xlink:href="#DejaVuSans-48"/>
      </g>
     </g>
    </g>
   </g>
   <g id="matplotlib.axis_2">
    <g id="ytick_1">
     <g id="line2d_6">
      <defs>
       <path d="M 0 0 
L -3.5 0 
" id="m57819b21ce" style="stroke:#000000;stroke-width:0.8;"/>
      </defs>
      <g>
       <use style="stroke:#000000;stroke-width:0.8;" x="32.58" xlink:href="#m57819b21ce" y="161.2872"/>
      </g>
     </g>
     <g id="text_6">
      <!-- 0 -->
      <g transform="translate(19.2175 165.086419)scale(0.1 -0.1)">
       <use xlink:href="#DejaVuSans-48"/>
      </g>
     </g>
    </g>
    <g id="ytick_2">
     <g id="line2d_7">
      <g>
       <use style="stroke:#000000;stroke-width:0.8;" x="32.58" xlink:href="#m57819b21ce" y="128.2752"/>
      </g>
     </g>
     <g id="text_7">
      <!-- 2 -->
      <g transform="translate(19.2175 132.074419)scale(0.1 -0.1)">
       <use xlink:href="#DejaVuSans-50"/>
      </g>
     </g>
    </g>
    <g id="ytick_3">
     <g id="line2d_8">
      <g>
       <use style="stroke:#000000;stroke-width:0.8;" x="32.58" xlink:href="#m57819b21ce" y="95.2632"/>
      </g>
     </g>
     <g id="text_8">
      <!-- 4 -->
      <defs>
       <path d="M 37.796875 64.3125 
L 12.890625 25.390625 
L 37.796875 25.390625 
z
M 35.203125 72.90625 
L 47.609375 72.90625 
L 47.609375 25.390625 
L 58.015625 25.390625 
L 58.015625 17.1875 
L 47.609375 17.1875 
L 47.609375 0 
L 37.796875 0 
L 37.796875 17.1875 
L 4.890625 17.1875 
L 4.890625 26.703125 
z
" id="DejaVuSans-52"/>
      </defs>
      <g transform="translate(19.2175 99.062419)scale(0.1 -0.1)">
       <use xlink:href="#DejaVuSans-52"/>
      </g>
     </g>
    </g>
    <g id="ytick_4">
     <g id="line2d_9">
      <g>
       <use style="stroke:#000000;stroke-width:0.8;" x="32.58" xlink:href="#m57819b21ce" y="62.2512"/>
      </g>
     </g>
     <g id="text_9">
      <!-- 6 -->
      <defs>
       <path d="M 33.015625 40.375 
Q 26.375 40.375 22.484375 35.828125 
Q 18.609375 31.296875 18.609375 23.390625 
Q 18.609375 15.53125 22.484375 10.953125 
Q 26.375 6.390625 33.015625 6.390625 
Q 39.65625 6.390625 43.53125 10.953125 
Q 47.40625 15.53125 47.40625 23.390625 
Q 47.40625 31.296875 43.53125 35.828125 
Q 39.65625 40.375 33.015625 40.375 
z
M 52.59375 71.296875 
L 52.59375 62.3125 
Q 48.875 64.0625 45.09375 64.984375 
Q 41.3125 65.921875 37.59375 65.921875 
Q 27.828125 65.921875 22.671875 59.328125 
Q 17.53125 52.734375 16.796875 39.40625 
Q 19.671875 43.65625 24.015625 45.921875 
Q 28.375 48.1875 33.59375 48.1875 
Q 44.578125 48.1875 50.953125 41.515625 
Q 57.328125 34.859375 57.328125 23.390625 
Q 57.328125 12.15625 50.6875 5.359375 
Q 44.046875 -1.421875 33.015625 -1.421875 
Q 20.359375 -1.421875 13.671875 8.265625 
Q 6.984375 17.96875 6.984375 36.375 
Q 6.984375 53.65625 15.1875 63.9375 
Q 23.390625 74.21875 37.203125 74.21875 
Q 40.921875 74.21875 44.703125 73.484375 
Q 48.484375 72.75 52.59375 71.296875 
z
" id="DejaVuSans-54"/>
      </defs>
      <g transform="translate(19.2175 66.050419)scale(0.1 -0.1)">
       <use xlink:href="#DejaVuSans-54"/>
      </g>
     </g>
    </g>
    <g id="ytick_5">
     <g id="line2d_10">
      <g>
       <use style="stroke:#000000;stroke-width:0.8;" x="32.58" xlink:href="#m57819b21ce" y="29.2392"/>
      </g>
     </g>
     <g id="text_10">
      <!-- 8 -->
      <defs>
       <path d="M 31.78125 34.625 
Q 24.75 34.625 20.71875 30.859375 
Q 16.703125 27.09375 16.703125 20.515625 
Q 16.703125 13.921875 20.71875 10.15625 
Q 24.75 6.390625 31.78125 6.390625 
Q 38.8125 6.390625 42.859375 10.171875 
Q 46.921875 13.96875 46.921875 20.515625 
Q 46.921875 27.09375 42.890625 30.859375 
Q 38.875 34.625 31.78125 34.625 
z
M 21.921875 38.8125 
Q 15.578125 40.375 12.03125 44.71875 
Q 8.5 49.078125 8.5 55.328125 
Q 8.5 64.0625 14.71875 69.140625 
Q 20.953125 74.21875 31.78125 74.21875 
Q 42.671875 74.21875 48.875 69.140625 
Q 55.078125 64.0625 55.078125 55.328125 
Q 55.078125 49.078125 51.53125 44.71875 
Q 48 40.375 41.703125 38.8125 
Q 48.828125 37.15625 52.796875 32.3125 
Q 56.78125 27.484375 56.78125 20.515625 
Q 56.78125 9.90625 50.3125 4.234375 
Q 43.84375 -1.421875 31.78125 -1.421875 
Q 19.734375 -1.421875 13.25 4.234375 
Q 6.78125 9.90625 6.78125 20.515625 
Q 6.78125 27.484375 10.78125 32.3125 
Q 14.796875 37.15625 21.921875 38.8125 
z
M 18.3125 54.390625 
Q 18.3125 48.734375 21.84375 45.5625 
Q 25.390625 42.390625 31.78125 42.390625 
Q 38.140625 42.390625 41.71875 45.5625 
Q 45.3125 48.734375 45.3125 54.390625 
Q 45.3125 60.0625 41.71875 63.234375 
Q 38.140625 66.40625 31.78125 66.40625 
Q 25.390625 66.40625 21.84375 63.234375 
Q 18.3125 60.0625 18.3125 54.390625 
z
" id="DejaVuSans-56"/>
      </defs>
      <g transform="translate(19.2175 33.038419)scale(0.1 -0.1)">
       <use xlink:href="#DejaVuSans-56"/>
      </g>
     </g>
    </g>
   </g>
   <g id="line2d_11">
    <path clip-path="url(#pd4f472c6cb)" d="M 41.761636 161.2872 
L 43.616512 160.953745 
L 45.471388 160.620291 
L 47.326264 160.286836 
L 49.18114 159.953382 
L 51.036017 159.619927 
L 52.890893 159.286473 
L 54.745769 158.953018 
L 56.600645 158.619564 
L 58.455521 158.286109 
L 60.310397 157.952655 
L 62.165273 157.6192 
L 64.020149 157.285745 
L 65.875025 156.952291 
L 67.729901 156.618836 
L 69.584777 156.285382 
L 71.439653 155.951927 
L 73.294529 155.618473 
L 75.149405 155.285018 
L 77.004281 154.951564 
L 78.859157 154.618109 
L 80.714033 154.284655 
L 82.568909 153.9512 
L 84.423785 153.617745 
L 86.278661 153.284291 
L 88.133537 152.950836 
L 89.988413 152.617382 
L 91.843289 152.283927 
L 93.698165 151.950473 
L 95.553041 151.617018 
L 97.407917 151.283564 
L 99.262793 150.950109 
L 101.117669 150.616655 
L 102.972545 150.2832 
L 104.827421 149.949745 
L 106.682298 149.616291 
L 108.537174 149.282836 
L 110.39205 148.949382 
L 112.246926 148.615927 
L 114.101802 148.282473 
L 115.956678 147.949018 
L 117.811554 147.615564 
L 119.66643 147.282109 
L 121.521306 146.948655 
L 123.376182 146.6152 
L 125.231058 146.281745 
L 127.085934 145.948291 
L 128.94081 145.614836 
L 130.795686 145.281382 
L 132.650562 144.947927 
L 134.505438 144.614473 
L 136.360314 144.281018 
L 138.21519 143.947564 
L 140.070066 143.614109 
L 141.924942 143.280655 
L 143.779818 142.9472 
L 145.634694 142.613745 
L 147.48957 142.280291 
L 149.344446 141.946836 
L 151.199322 141.613382 
L 153.054198 141.279927 
L 154.909074 140.946473 
L 156.76395 140.613018 
L 158.618826 140.279564 
L 160.473702 139.946109 
L 162.328579 139.612655 
L 164.183455 139.2792 
L 166.038331 138.945745 
L 167.893207 138.612291 
L 169.748083 138.278836 
L 171.602959 137.945382 
L 173.457835 137.611927 
L 175.312711 137.278473 
L 177.167587 136.945018 
L 179.022463 136.611564 
L 180.877339 136.278109 
L 182.732215 135.944655 
L 184.587091 135.6112 
L 186.441967 135.277745 
L 188.296843 134.944291 
L 190.151719 134.610836 
L 192.006595 134.277382 
L 193.861471 133.943927 
L 195.716347 133.610473 
L 197.571223 133.277018 
L 199.426099 132.943564 
L 201.280975 132.610109 
L 203.135851 132.276655 
L 204.990727 131.9432 
L 206.845603 131.609745 
L 208.700479 131.276291 
L 210.555355 130.942836 
L 212.410231 130.609382 
L 214.265107 130.275927 
L 216.119983 129.942473 
L 217.97486 129.609018 
L 219.829736 129.275564 
L 221.684612 128.942109 
L 223.539488 128.608655 
L 225.394364 128.2752 
" style="fill:none;stroke:#1f77b4;stroke-linecap:square;stroke-width:1.5;"/>
   </g>
   <g id="line2d_12">
    <path clip-path="url(#pd4f472c6cb)" d="M 41.761636 161.2872 
L 43.616512 161.280464 
L 45.471388 161.260254 
L 47.326264 161.226572 
L 49.18114 161.179417 
L 51.036017 161.118789 
L 52.890893 161.044688 
L 54.745769 160.957114 
L 56.600645 160.856067 
L 58.455521 160.741547 
L 60.310397 160.613554 
L 62.165273 160.472089 
L 64.020149 160.31715 
L 65.875025 160.148739 
L 67.729901 159.966855 
L 69.584777 159.771498 
L 71.439653 159.562667 
L 73.294529 159.340364 
L 75.149405 159.104588 
L 77.004281 158.85534 
L 78.859157 158.592618 
L 80.714033 158.316423 
L 82.568909 158.026756 
L 84.423785 157.723615 
L 86.278661 157.407002 
L 88.133537 157.076915 
L 89.988413 156.733356 
L 91.843289 156.376324 
L 93.698165 156.005819 
L 95.553041 155.621841 
L 97.407917 155.22439 
L 99.262793 154.813466 
L 101.117669 154.38907 
L 102.972545 153.9512 
L 104.827421 153.499857 
L 106.682298 153.035042 
L 108.537174 152.556754 
L 110.39205 152.064992 
L 112.246926 151.559758 
L 114.101802 151.041051 
L 115.956678 150.508871 
L 117.811554 149.963218 
L 119.66643 149.404093 
L 121.521306 148.831494 
L 123.376182 148.245422 
L 125.231058 147.645878 
L 127.085934 147.03286 
L 128.94081 146.40637 
L 130.795686 145.766407 
L 132.650562 145.11297 
L 134.505438 144.446061 
L 136.360314 143.765679 
L 138.21519 143.071824 
L 140.070066 142.364497 
L 141.924942 141.643696 
L 143.779818 140.909422 
L 145.634694 140.161676 
L 147.48957 139.400456 
L 149.344446 138.625764 
L 151.199322 137.837599 
L 153.054198 137.03596 
L 154.909074 136.220849 
L 156.76395 135.392265 
L 158.618826 134.550208 
L 160.473702 133.694678 
L 162.328579 132.825676 
L 164.183455 131.9432 
L 166.038331 131.047251 
L 167.893207 130.13783 
L 169.748083 129.214936 
L 171.602959 128.278568 
L 173.457835 127.328728 
L 175.312711 126.365415 
L 177.167587 125.388629 
L 179.022463 124.39837 
L 180.877339 123.394638 
L 182.732215 122.377433 
L 184.587091 121.346756 
L 186.441967 120.302605 
L 188.296843 119.244981 
L 190.151719 118.173885 
L 192.006595 117.089316 
L 193.861471 115.991273 
L 195.716347 114.879758 
L 197.571223 113.75477 
L 199.426099 112.616309 
L 201.280975 111.464375 
L 203.135851 110.298969 
L 204.990727 109.120089 
L 206.845603 107.927736 
L 208.700479 106.721911 
L 210.555355 105.502612 
L 212.410231 104.269841 
L 214.265107 103.023597 
L 216.119983 101.76388 
L 217.97486 100.490689 
L 219.829736 99.204026 
L 221.684612 97.903891 
L 223.539488 96.590282 
L 225.394364 95.2632 
" style="fill:none;stroke:#ff7f0e;stroke-linecap:square;stroke-width:1.5;"/>
   </g>
   <g id="line2d_13">
    <path clip-path="url(#pd4f472c6cb)" d="M 41.761636 161.2872 
L 43.616512 161.287064 
L 45.471388 161.286111 
L 47.326264 161.283526 
L 49.18114 161.27849 
L 51.036017 161.270189 
L 52.890893 161.257805 
L 54.745769 161.240521 
L 56.600645 161.217522 
L 58.455521 161.18799 
L 60.310397 161.15111 
L 62.165273 161.106064 
L 64.020149 161.052036 
L 65.875025 160.98821 
L 67.729901 160.913769 
L 69.584777 160.827896 
L 71.439653 160.729775 
L 73.294529 160.61859 
L 75.149405 160.493523 
L 77.004281 160.353759 
L 78.859157 160.19848 
L 80.714033 160.02687 
L 82.568909 159.838114 
L 84.423785 159.631393 
L 86.278661 159.405892 
L 88.133537 159.160794 
L 89.988413 158.895282 
L 91.843289 158.60854 
L 93.698165 158.299752 
L 95.553041 157.968101 
L 97.407917 157.61277 
L 99.262793 157.232943 
L 101.117669 156.827803 
L 102.972545 156.396533 
L 104.827421 155.938318 
L 106.682298 155.452341 
L 108.537174 154.937785 
L 110.39205 154.393833 
L 112.246926 153.819669 
L 114.101802 153.214477 
L 115.956678 152.577439 
L 117.811554 151.90774 
L 119.66643 151.204563 
L 121.521306 150.467092 
L 123.376182 149.694509 
L 125.231058 148.885998 
L 127.085934 148.040743 
L 128.94081 147.157927 
L 130.795686 146.236734 
L 132.650562 145.276346 
L 134.505438 144.275949 
L 136.360314 143.234724 
L 138.21519 142.151856 
L 140.070066 141.026528 
L 141.924942 139.857923 
L 143.779818 138.645225 
L 145.634694 137.387617 
L 147.48957 136.084283 
L 149.344446 134.734406 
L 151.199322 133.33717 
L 153.054198 131.891758 
L 154.909074 130.397354 
L 156.76395 128.85314 
L 158.618826 127.258301 
L 160.473702 125.612021 
L 162.328579 123.913481 
L 164.183455 122.161867 
L 166.038331 120.356361 
L 167.893207 118.496146 
L 169.748083 116.580407 
L 171.602959 114.608327 
L 173.457835 112.579089 
L 175.312711 110.491876 
L 177.167587 108.345873 
L 179.022463 106.140262 
L 180.877339 103.874227 
L 182.732215 101.546952 
L 184.587091 99.15762 
L 186.441967 96.705414 
L 188.296843 94.189518 
L 190.151719 91.609115 
L 192.006595 88.963389 
L 193.861471 86.251524 
L 195.716347 83.472702 
L 197.571223 80.626107 
L 199.426099 77.710923 
L 201.280975 74.726333 
L 203.135851 71.671521 
L 204.990727 68.545669 
L 206.845603 65.347962 
L 208.700479 62.077583 
L 210.555355 58.733716 
L 212.410231 55.315543 
L 214.265107 51.822248 
L 216.119983 48.253016 
L 217.97486 44.607028 
L 219.829736 40.883469 
L 221.684612 37.081523 
L 223.539488 33.200372 
L 225.394364 29.2392 
" style="fill:none;stroke:#2ca02c;stroke-linecap:square;stroke-width:1.5;"/>
   </g>
   <g id="patch_3">
    <path d="M 32.58 167.8896 
L 32.58 22.6368 
" style="fill:none;stroke:#000000;stroke-linecap:square;stroke-linejoin:miter;stroke-width:0.8;"/>
   </g>
   <g id="patch_4">
    <path d="M 234.576 167.8896 
L 234.576 22.6368 
" style="fill:none;stroke:#000000;stroke-linecap:square;stroke-linejoin:miter;stroke-width:0.8;"/>
   </g>
   <g id="patch_5">
    <path d="M 32.58 167.8896 
L 234.576 167.8896 
" style="fill:none;stroke:#000000;stroke-linecap:square;stroke-linejoin:miter;stroke-width:0.8;"/>
   </g>
   <g id="patch_6">
    <path d="M 32.58 22.6368 
L 234.576 22.6368 
" style="fill:none;stroke:#000000;stroke-linecap:square;stroke-linejoin:miter;stroke-width:0.8;"/>
   </g>
  </g>
 </g>
 <defs>
  <clipPath id="pd4f472c6cb">
   <rect height="145.2528" width="201.996" x="32.58" y="22.6368"/>
  </clipPath>
 </defs>
</svg>
