<?xml version="1.0" encoding="utf-8" standalone="no"?>
<!DOCTYPE svg PUBLIC "-//W3C//DTD SVG 1.1//EN"
  "http://www.w3.org/Graphics/SVG/1.1/DTD/svg11.dtd">
<!-- Created with matplotlib (https://matplotlib.org/) -->
<svg height="263.52pt" version="1.1" viewBox="0 0 331.92 263.52" width="331.92pt" xmlns="http://www.w3.org/2000/svg" xmlns:xlink="http://www.w3.org/1999/xlink">
 <defs>
  <style type="text/css">
*{stroke-linecap:butt;stroke-linejoin:round;white-space:pre;}
  </style>
 </defs>
 <g id="figure_1">
  <g id="patch_1">
   <path d="M 0 263.52 
L 331.92 263.52 
L 331.92 0 
L 0 0 
z
" style="fill:#ffffff;"/>
  </g>
  <g id="axes_1">
   <g id="patch_2">
    <path d="M 41.49 234.5328 
L 298.728 234.5328 
L 298.728 31.6224 
L 41.49 31.6224 
z
" style="fill:#ffffff;"/>
   </g>
   <g id="matplotlib.axis_1">
    <g id="xtick_1">
     <g id="line2d_1">
      <defs>
       <path d="M 0 0 
L 0 3.5 
" id="mfbc12e876b" style="stroke:#000000;stroke-width:0.8;"/>
      </defs>
      <g>
       <use style="stroke:#000000;stroke-width:0.8;" x="76.567909" xlink:href="#mfbc12e876b" y="234.5328"/>
      </g>
     </g>
     <g id="text_1">
      <!-- −4 -->
      <defs>
       <path d="M 10.59375 35.5 
L 73.1875 35.5 
L 73.1875 27.203125 
L 10.59375 27.203125 
z
" id="DejaVuSans-8722"/>
       <path d="M 37.796875 64.3125 
L 12.890625 25.390625 
L 37.796875 25.390625 
z
M 35.203125 72.90625 
L 47.609375 72.90625 
L 47.609375 25.390625 
L 58.015625 25.390625 
L 58.015625 17.1875 
L 47.609375 17.1875 
L 47.609375 0 
L 37.796875 0 
L 37.796875 17.1875 
L 4.890625 17.1875 
L 4.890625 26.703125 
z
" id="DejaVuSans-52"/>
      </defs>
      <g transform="translate(69.196815 249.131237)scale(0.1 -0.1)">
       <use xlink:href="#DejaVuSans-8722"/>
       <use x="83.789062" xlink:href="#DejaVuSans-52"/>
      </g>
     </g>
    </g>
    <g id="xtick_2">
     <g id="line2d_2">
      <g>
       <use style="stroke:#000000;stroke-width:0.8;" x="123.338455" xlink:href="#mfbc12e876b" y="234.5328"/>
      </g>
     </g>
     <g id="text_2">
      <!-- −2 -->
      <defs>
       <path d="M 19.1875 8.296875 
L 53.609375 8.296875 
L 53.609375 0 
L 7.328125 0 
L 7.328125 8.296875 
Q 12.9375 14.109375 22.625 23.890625 
Q 32.328125 33.6875 34.8125 36.53125 
Q 39.546875 41.84375 41.421875 45.53125 
Q 43.3125 49.21875 43.3125 52.78125 
Q 43.3125 58.59375 39.234375 62.25 
Q 35.15625 65.921875 28.609375 65.921875 
Q 23.96875 65.921875 18.8125 64.3125 
Q 13.671875 62.703125 7.8125 59.421875 
L 7.8125 69.390625 
Q 13.765625 71.78125 18.9375 73 
Q 24.125 74.21875 28.421875 74.21875 
Q 39.75 74.21875 46.484375 68.546875 
Q 53.21875 62.890625 53.21875 53.421875 
Q 53.21875 48.921875 51.53125 44.890625 
Q 49.859375 40.875 45.40625 35.40625 
Q 44.1875 33.984375 37.640625 27.21875 
Q 31.109375 20.453125 19.1875 8.296875 
z
" id="DejaVuSans-50"/>
      </defs>
      <g transform="translate(115.967361 249.131237)scale(0.1 -0.1)">
       <use xlink:href="#DejaVuSans-8722"/>
       <use x="83.789062" xlink:href="#DejaVuSans-50"/>
      </g>
     </g>
    </g>
    <g id="xtick_3">
     <g id="line2d_3">
      <g>
       <use style="stroke:#000000;stroke-width:0.8;" x="170.109" xlink:href="#mfbc12e876b" y="234.5328"/>
      </g>
     </g>
     <g id="text_3">
      <!-- 0 -->
      <defs>
       <path d="M 31.78125 66.40625 
Q 24.171875 66.40625 20.328125 58.90625 
Q 16.5 51.421875 16.5 36.375 
Q 16.5 21.390625 20.328125 13.890625 
Q 24.171875 6.390625 31.78125 6.390625 
Q 39.453125 6.390625 43.28125 13.890625 
Q 47.125 21.390625 47.125 36.375 
Q 47.125 51.421875 43.28125 58.90625 
Q 39.453125 66.40625 31.78125 66.40625 
z
M 31.78125 74.21875 
Q 44.046875 74.21875 50.515625 64.515625 
Q 56.984375 54.828125 56.984375 36.375 
Q 56.984375 17.96875 50.515625 8.265625 
Q 44.046875 -1.421875 31.78125 -1.421875 
Q 19.53125 -1.421875 13.0625 8.265625 
Q 6.59375 17.96875 6.59375 36.375 
Q 6.59375 54.828125 13.0625 64.515625 
Q 19.53125 74.21875 31.78125 74.21875 
z
" id="DejaVuSans-48"/>
      </defs>
      <g transform="translate(166.92775 249.131237)scale(0.1 -0.1)">
       <use xlink:href="#DejaVuSans-48"/>
      </g>
     </g>
    </g>
    <g id="xtick_4">
     <g id="line2d_4">
      <g>
       <use style="stroke:#000000;stroke-width:0.8;" x="216.879545" xlink:href="#mfbc12e876b" y="234.5328"/>
      </g>
     </g>
     <g id="text_4">
      <!-- 2 -->
      <g transform="translate(213.698295 249.131237)scale(0.1 -0.1)">
       <use xlink:href="#DejaVuSans-50"/>
      </g>
     </g>
    </g>
    <g id="xtick_5">
     <g id="line2d_5">
      <g>
       <use style="stroke:#000000;stroke-width:0.8;" x="263.650091" xlink:href="#mfbc12e876b" y="234.5328"/>
      </g>
     </g>
     <g id="text_5">
      <!-- 4 -->
      <g transform="translate(260.468841 249.131237)scale(0.1 -0.1)">
       <use xlink:href="#DejaVuSans-52"/>
      </g>
     </g>
    </g>
   </g>
   <g id="matplotlib.axis_2">
    <g id="ytick_1">
     <g id="line2d_6">
      <defs>
       <path d="M 0 0 
L -3.5 0 
" id="mdbcabad3e0" style="stroke:#000000;stroke-width:0.8;"/>
      </defs>
      <g>
       <use style="stroke:#000000;stroke-width:0.8;" x="41.49" xlink:href="#mdbcabad3e0" y="225.310044"/>
      </g>
     </g>
     <g id="text_6">
      <!-- 0.0 -->
      <defs>
       <path d="M 10.6875 12.40625 
L 21 12.40625 
L 21 0 
L 10.6875 0 
z
" id="DejaVuSans-46"/>
      </defs>
      <g transform="translate(18.586875 229.109262)scale(0.1 -0.1)">
       <use xlink:href="#DejaVuSans-48"/>
       <use x="63.623047" xlink:href="#DejaVuSans-46"/>
       <use x="95.410156" xlink:href="#DejaVuSans-48"/>
      </g>
     </g>
    </g>
    <g id="ytick_2">
     <g id="line2d_7">
      <g>
       <use style="stroke:#000000;stroke-width:0.8;" x="41.49" xlink:href="#mdbcabad3e0" y="192.44391"/>
      </g>
     </g>
     <g id="text_7">
      <!-- 0.1 -->
      <defs>
       <path d="M 12.40625 8.296875 
L 28.515625 8.296875 
L 28.515625 63.921875 
L 10.984375 60.40625 
L 10.984375 69.390625 
L 28.421875 72.90625 
L 38.28125 72.90625 
L 38.28125 8.296875 
L 54.390625 8.296875 
L 54.390625 0 
L 12.40625 0 
z
" id="DejaVuSans-49"/>
      </defs>
      <g transform="translate(18.586875 196.243129)scale(0.1 -0.1)">
       <use xlink:href="#DejaVuSans-48"/>
       <use x="63.623047" xlink:href="#DejaVuSans-46"/>
       <use x="95.410156" xlink:href="#DejaVuSans-49"/>
      </g>
     </g>
    </g>
    <g id="ytick_3">
     <g id="line2d_8">
      <g>
       <use style="stroke:#000000;stroke-width:0.8;" x="41.49" xlink:href="#mdbcabad3e0" y="159.577777"/>
      </g>
     </g>
     <g id="text_8">
      <!-- 0.2 -->
      <g transform="translate(18.586875 163.376996)scale(0.1 -0.1)">
       <use xlink:href="#DejaVuSans-48"/>
       <use x="63.623047" xlink:href="#DejaVuSans-46"/>
       <use x="95.410156" xlink:href="#DejaVuSans-50"/>
      </g>
     </g>
    </g>
    <g id="ytick_4">
     <g id="line2d_9">
      <g>
       <use style="stroke:#000000;stroke-width:0.8;" x="41.49" xlink:href="#mdbcabad3e0" y="126.711644"/>
      </g>
     </g>
     <g id="text_9">
      <!-- 0.3 -->
      <defs>
       <path d="M 40.578125 39.3125 
Q 47.65625 37.796875 51.625 33 
Q 55.609375 28.21875 55.609375 21.1875 
Q 55.609375 10.40625 48.1875 4.484375 
Q 40.765625 -1.421875 27.09375 -1.421875 
Q 22.515625 -1.421875 17.65625 -0.515625 
Q 12.796875 0.390625 7.625 2.203125 
L 7.625 11.71875 
Q 11.71875 9.328125 16.59375 8.109375 
Q 21.484375 6.890625 26.8125 6.890625 
Q 36.078125 6.890625 40.9375 10.546875 
Q 45.796875 14.203125 45.796875 21.1875 
Q 45.796875 27.640625 41.28125 31.265625 
Q 36.765625 34.90625 28.71875 34.90625 
L 20.21875 34.90625 
L 20.21875 43.015625 
L 29.109375 43.015625 
Q 36.375 43.015625 40.234375 45.921875 
Q 44.09375 48.828125 44.09375 54.296875 
Q 44.09375 59.90625 40.109375 62.90625 
Q 36.140625 65.921875 28.71875 65.921875 
Q 24.65625 65.921875 20.015625 65.03125 
Q 15.375 64.15625 9.8125 62.3125 
L 9.8125 71.09375 
Q 15.4375 72.65625 20.34375 73.4375 
Q 25.25 74.21875 29.59375 74.21875 
Q 40.828125 74.21875 47.359375 69.109375 
Q 53.90625 64.015625 53.90625 55.328125 
Q 53.90625 49.265625 50.4375 45.09375 
Q 46.96875 40.921875 40.578125 39.3125 
z
" id="DejaVuSans-51"/>
      </defs>
      <g transform="translate(18.586875 130.510863)scale(0.1 -0.1)">
       <use xlink:href="#DejaVuSans-48"/>
       <use x="63.623047" xlink:href="#DejaVuSans-46"/>
       <use x="95.410156" xlink:href="#DejaVuSans-51"/>
      </g>
     </g>
    </g>
    <g id="ytick_5">
     <g id="line2d_10">
      <g>
       <use style="stroke:#000000;stroke-width:0.8;" x="41.49" xlink:href="#mdbcabad3e0" y="93.845511"/>
      </g>
     </g>
     <g id="text_10">
      <!-- 0.4 -->
      <g transform="translate(18.586875 97.64473)scale(0.1 -0.1)">
       <use xlink:href="#DejaVuSans-48"/>
       <use x="63.623047" xlink:href="#DejaVuSans-46"/>
       <use x="95.410156" xlink:href="#DejaVuSans-52"/>
      </g>
     </g>
    </g>
    <g id="ytick_6">
     <g id="line2d_11">
      <g>
       <use style="stroke:#000000;stroke-width:0.8;" x="41.49" xlink:href="#mdbcabad3e0" y="60.979378"/>
      </g>
     </g>
     <g id="text_11">
      <!-- 0.5 -->
      <defs>
       <path d="M 10.796875 72.90625 
L 49.515625 72.90625 
L 49.515625 64.59375 
L 19.828125 64.59375 
L 19.828125 46.734375 
Q 21.96875 47.46875 24.109375 47.828125 
Q 26.265625 48.1875 28.421875 48.1875 
Q 40.625 48.1875 47.75 41.5 
Q 54.890625 34.8125 54.890625 23.390625 
Q 54.890625 11.625 47.5625 5.09375 
Q 40.234375 -1.421875 26.90625 -1.421875 
Q 22.3125 -1.421875 17.546875 -0.640625 
Q 12.796875 0.140625 7.71875 1.703125 
L 7.71875 11.625 
Q 12.109375 9.234375 16.796875 8.0625 
Q 21.484375 6.890625 26.703125 6.890625 
Q 35.15625 6.890625 40.078125 11.328125 
Q 45.015625 15.765625 45.015625 23.390625 
Q 45.015625 31 40.078125 35.4375 
Q 35.15625 39.890625 26.703125 39.890625 
Q 22.75 39.890625 18.8125 39.015625 
Q 14.890625 38.140625 10.796875 36.28125 
z
" id="DejaVuSans-53"/>
      </defs>
      <g transform="translate(18.586875 64.778596)scale(0.1 -0.1)">
       <use xlink:href="#DejaVuSans-48"/>
       <use x="63.623047" xlink:href="#DejaVuSans-46"/>
       <use x="95.410156" xlink:href="#DejaVuSans-53"/>
      </g>
     </g>
    </g>
   </g>
   <g id="line2d_12">
    <defs>
     <path d="M 0 3 
C 0.795609 3 1.55874 2.683901 2.12132 2.12132 
C 2.683901 1.55874 3 0.795609 3 0 
C 3 -0.795609 2.683901 -1.55874 2.12132 -2.12132 
C 1.55874 -2.683901 0.795609 -3 0 -3 
C -0.795609 -3 -1.55874 -2.683901 -2.12132 -2.12132 
C -2.683901 -1.55874 -3 -0.795609 -3 0 
C -3 0.795609 -2.683901 1.55874 -2.12132 2.12132 
C -1.55874 2.683901 -0.795609 3 0 3 
z
" id="mcf008f57f9" style="stroke:#ff0000;"/>
    </defs>
    <g clip-path="url(#pc2669d015e)">
     <use style="fill:#ff0000;stroke:#ff0000;" x="53.182636" xlink:href="#mcf008f57f9" y="225.309353"/>
     <use style="fill:#ff0000;stroke:#ff0000;" x="57.955141" xlink:href="#mcf008f57f9" y="225.308166"/>
     <use style="fill:#ff0000;stroke:#ff0000;" x="62.727646" xlink:href="#mcf008f57f9" y="225.30515"/>
     <use style="fill:#ff0000;stroke:#ff0000;" x="67.50015" xlink:href="#mcf008f57f9" y="225.29781"/>
     <use style="fill:#ff0000;stroke:#ff0000;" x="72.272655" xlink:href="#mcf008f57f9" y="225.280706"/>
     <use style="fill:#ff0000;stroke:#ff0000;" x="77.04516" xlink:href="#mcf008f57f9" y="225.242563"/>
     <use style="fill:#ff0000;stroke:#ff0000;" x="81.817664" xlink:href="#mcf008f57f9" y="225.161158"/>
     <use style="fill:#ff0000;stroke:#ff0000;" x="86.590169" xlink:href="#mcf008f57f9" y="224.994951"/>
     <use style="fill:#ff0000;stroke:#ff0000;" x="91.362673" xlink:href="#mcf008f57f9" y="224.670404"/>
     <use style="fill:#ff0000;stroke:#ff0000;" x="96.135178" xlink:href="#mcf008f57f9" y="224.064541"/>
     <use style="fill:#ff0000;stroke:#ff0000;" x="100.907683" xlink:href="#mcf008f57f9" y="222.983744"/>
     <use style="fill:#ff0000;stroke:#ff0000;" x="105.680187" xlink:href="#mcf008f57f9" y="221.142323"/>
     <use style="fill:#ff0000;stroke:#ff0000;" x="110.452692" xlink:href="#mcf008f57f9" y="218.147893"/>
     <use style="fill:#ff0000;stroke:#ff0000;" x="115.225197" xlink:href="#mcf008f57f9" y="213.504112"/>
     <use style="fill:#ff0000;stroke:#ff0000;" x="119.997701" xlink:href="#mcf008f57f9" y="206.643281"/>
     <use style="fill:#ff0000;stroke:#ff0000;" x="124.770206" xlink:href="#mcf008f57f9" y="196.999405"/>
     <use style="fill:#ff0000;stroke:#ff0000;" x="129.542711" xlink:href="#mcf008f57f9" y="184.124741"/>
     <use style="fill:#ff0000;stroke:#ff0000;" x="134.315215" xlink:href="#mcf008f57f9" y="167.839302"/>
     <use style="fill:#ff0000;stroke:#ff0000;" x="139.08772" xlink:href="#mcf008f57f9" y="148.385795"/>
     <use style="fill:#ff0000;stroke:#ff0000;" x="143.860224" xlink:href="#mcf008f57f9" y="126.547637"/>
     <use style="fill:#ff0000;stroke:#ff0000;" x="148.632729" xlink:href="#mcf008f57f9" y="103.682482"/>
     <use style="fill:#ff0000;stroke:#ff0000;" x="153.405234" xlink:href="#mcf008f57f9" y="81.634031"/>
     <use style="fill:#ff0000;stroke:#ff0000;" x="158.177738" xlink:href="#mcf008f57f9" y="62.512268"/>
     <use style="fill:#ff0000;stroke:#ff0000;" x="162.950243" xlink:href="#mcf008f57f9" y="48.370624"/>
     <use style="fill:#ff0000;stroke:#ff0000;" x="167.722748" xlink:href="#mcf008f57f9" y="40.8456"/>
     <use style="fill:#ff0000;stroke:#ff0000;" x="172.495252" xlink:href="#mcf008f57f9" y="40.8456"/>
     <use style="fill:#ff0000;stroke:#ff0000;" x="177.267757" xlink:href="#mcf008f57f9" y="48.370624"/>
     <use style="fill:#ff0000;stroke:#ff0000;" x="182.040262" xlink:href="#mcf008f57f9" y="62.512268"/>
     <use style="fill:#ff0000;stroke:#ff0000;" x="186.812766" xlink:href="#mcf008f57f9" y="81.634031"/>
     <use style="fill:#ff0000;stroke:#ff0000;" x="191.585271" xlink:href="#mcf008f57f9" y="103.682482"/>
     <use style="fill:#ff0000;stroke:#ff0000;" x="196.357776" xlink:href="#mcf008f57f9" y="126.547637"/>
     <use style="fill:#ff0000;stroke:#ff0000;" x="201.13028" xlink:href="#mcf008f57f9" y="148.385795"/>
     <use style="fill:#ff0000;stroke:#ff0000;" x="205.902785" xlink:href="#mcf008f57f9" y="167.839302"/>
     <use style="fill:#ff0000;stroke:#ff0000;" x="210.675289" xlink:href="#mcf008f57f9" y="184.124741"/>
     <use style="fill:#ff0000;stroke:#ff0000;" x="215.447794" xlink:href="#mcf008f57f9" y="196.999405"/>
     <use style="fill:#ff0000;stroke:#ff0000;" x="220.220299" xlink:href="#mcf008f57f9" y="206.643281"/>
     <use style="fill:#ff0000;stroke:#ff0000;" x="224.992803" xlink:href="#mcf008f57f9" y="213.504112"/>
     <use style="fill:#ff0000;stroke:#ff0000;" x="229.765308" xlink:href="#mcf008f57f9" y="218.147893"/>
     <use style="fill:#ff0000;stroke:#ff0000;" x="234.537813" xlink:href="#mcf008f57f9" y="221.142323"/>
     <use style="fill:#ff0000;stroke:#ff0000;" x="239.310317" xlink:href="#mcf008f57f9" y="222.983744"/>
     <use style="fill:#ff0000;stroke:#ff0000;" x="244.082822" xlink:href="#mcf008f57f9" y="224.064541"/>
     <use style="fill:#ff0000;stroke:#ff0000;" x="248.855327" xlink:href="#mcf008f57f9" y="224.670404"/>
     <use style="fill:#ff0000;stroke:#ff0000;" x="253.627831" xlink:href="#mcf008f57f9" y="224.994951"/>
     <use style="fill:#ff0000;stroke:#ff0000;" x="258.400336" xlink:href="#mcf008f57f9" y="225.161158"/>
     <use style="fill:#ff0000;stroke:#ff0000;" x="263.17284" xlink:href="#mcf008f57f9" y="225.242563"/>
     <use style="fill:#ff0000;stroke:#ff0000;" x="267.945345" xlink:href="#mcf008f57f9" y="225.280706"/>
     <use style="fill:#ff0000;stroke:#ff0000;" x="272.71785" xlink:href="#mcf008f57f9" y="225.29781"/>
     <use style="fill:#ff0000;stroke:#ff0000;" x="277.490354" xlink:href="#mcf008f57f9" y="225.30515"/>
     <use style="fill:#ff0000;stroke:#ff0000;" x="282.262859" xlink:href="#mcf008f57f9" y="225.308166"/>
     <use style="fill:#ff0000;stroke:#ff0000;" x="287.035364" xlink:href="#mcf008f57f9" y="225.309353"/>
    </g>
   </g>
   <g id="line2d_13">
    <path clip-path="url(#pc2669d015e)" d="M 53.182636 215.538097 
L 57.955141 212.175761 
L 62.727646 208.020338 
L 67.50015 203.019287 
L 72.272655 197.163959 
L 77.04516 190.503001 
L 81.817664 183.152797 
L 86.590169 175.302755 
L 91.362673 167.213493 
L 96.135178 159.206711 
L 100.907683 151.646547 
L 105.680187 144.91352 
L 110.452692 139.373442 
L 115.225197 135.34474 
L 119.997701 133.068218 
L 124.770206 132.683236 
L 129.542711 134.21359 
L 134.315215 137.565077 
L 139.08772 142.535095 
L 143.860224 148.832912 
L 148.632729 156.107791 
L 153.405234 163.981191 
L 158.177738 172.078947 
L 162.950243 180.059693 
L 167.722748 187.636675 
L 172.495252 194.591337 
L 177.267757 200.778359 
L 182.040262 206.123013 
L 186.812766 210.612521 
L 191.585271 214.283574 
L 196.357776 217.208183 
L 201.13028 219.479768 
L 205.902785 221.200919 
L 210.675289 222.473656 
L 215.447794 223.392533 
L 220.220299 224.040447 
L 224.992803 224.486759 
L 229.765308 224.787178 
L 234.537813 224.984817 
L 239.310317 225.111919 
L 244.082822 225.191836 
L 248.855327 225.24097 
L 253.627831 225.270513 
L 258.400336 225.287887 
L 263.17284 225.297881 
L 267.945345 225.303504 
L 272.71785 225.3066 
L 277.490354 225.308268 
L 282.262859 225.309147 
L 287.035364 225.3096 
" style="fill:none;stroke:#0000ff;stroke-dasharray:1.5,2.475;stroke-dashoffset:0;stroke-width:1.5;"/>
   </g>
   <g id="line2d_14">
    <path clip-path="url(#pc2669d015e)" d="M 53.182636 225.308603 
L 57.955141 225.307578 
L 62.727646 225.305882 
L 67.50015 225.303117 
L 72.272655 225.298674 
L 77.04516 225.291637 
L 81.817664 225.280657 
L 86.590169 225.263772 
L 91.362673 225.238191 
L 96.135178 225.200005 
L 100.907683 225.143849 
L 105.680187 225.062495 
L 110.452692 224.946402 
L 115.225197 224.78323 
L 119.997701 224.557362 
L 124.770206 224.249481 
L 129.542711 223.836265 
L 134.315215 223.290289 
L 139.08772 222.580213 
L 143.860224 221.671368 
L 148.632729 220.52681 
L 153.405234 219.108918 
L 158.177738 217.38156 
L 162.950243 215.312798 
L 167.722748 212.878036 
L 172.495252 210.063451 
L 177.267757 206.869447 
L 182.040262 203.313838 
L 186.812766 199.434395 
L 191.585271 195.290413 
L 196.357776 190.962942 
L 201.13028 186.55346 
L 205.902785 182.180832 
L 210.675289 177.976589 
L 215.447794 174.078725 
L 220.220299 170.624378 
L 224.992803 167.741914 
L 229.765308 165.543054 
L 234.537813 164.1157 
L 239.310317 163.518103 
L 244.082822 163.774927 
L 248.855327 164.875553 
L 253.627831 166.774811 
L 258.400336 169.396055 
L 263.17284 172.636293 
L 267.945345 176.372895 
L 272.71785 180.471271 
L 277.490354 184.792844 
L 282.262859 189.202681 
L 287.035364 193.576194 
" style="fill:none;stroke:#008000;stroke-dasharray:5.55,2.4;stroke-dashoffset:0;stroke-width:1.5;"/>
   </g>
   <g id="line2d_15">
    <defs>
     <path d="M -3 3 
L 3 -3 
M -3 -3 
L 3 3 
" id="mfe7142ecd5" style="stroke:#000000;"/>
    </defs>
    <g clip-path="url(#pc2669d015e)">
     <use style="stroke:#000000;" x="53.182636" xlink:href="#mfe7142ecd5" y="225.308186"/>
     <use style="stroke:#000000;" x="57.955141" xlink:href="#mfe7142ecd5" y="225.307119"/>
     <use style="stroke:#000000;" x="62.727646" xlink:href="#mfe7142ecd5" y="225.305487"/>
     <use style="stroke:#000000;" x="67.50015" xlink:href="#mfe7142ecd5" y="225.303016"/>
     <use style="stroke:#000000;" x="72.272655" xlink:href="#mfe7142ecd5" y="225.299319"/>
     <use style="stroke:#000000;" x="77.04516" xlink:href="#mfe7142ecd5" y="225.293846"/>
     <use style="stroke:#000000;" x="81.817664" xlink:href="#mfe7142ecd5" y="225.285833"/>
     <use style="stroke:#000000;" x="86.590169" xlink:href="#mfe7142ecd5" y="225.274231"/>
     <use style="stroke:#000000;" x="91.362673" xlink:href="#mfe7142ecd5" y="225.257618"/>
     <use style="stroke:#000000;" x="96.135178" xlink:href="#mfe7142ecd5" y="225.234093"/>
     <use style="stroke:#000000;" x="100.907683" xlink:href="#mfe7142ecd5" y="225.201153"/>
     <use style="stroke:#000000;" x="105.680187" xlink:href="#mfe7142ecd5" y="225.155543"/>
     <use style="stroke:#000000;" x="110.452692" xlink:href="#mfe7142ecd5" y="225.093099"/>
     <use style="stroke:#000000;" x="115.225197" xlink:href="#mfe7142ecd5" y="225.008574"/>
     <use style="stroke:#000000;" x="119.997701" xlink:href="#mfe7142ecd5" y="224.895455"/>
     <use style="stroke:#000000;" x="124.770206" xlink:href="#mfe7142ecd5" y="224.745797"/>
     <use style="stroke:#000000;" x="129.542711" xlink:href="#mfe7142ecd5" y="224.550069"/>
     <use style="stroke:#000000;" x="134.315215" xlink:href="#mfe7142ecd5" y="224.29705"/>
     <use style="stroke:#000000;" x="139.08772" xlink:href="#mfe7142ecd5" y="223.97378"/>
     <use style="stroke:#000000;" x="143.860224" xlink:href="#mfe7142ecd5" y="223.565605"/>
     <use style="stroke:#000000;" x="148.632729" xlink:href="#mfe7142ecd5" y="223.056337"/>
     <use style="stroke:#000000;" x="153.405234" xlink:href="#mfe7142ecd5" y="222.428554"/>
     <use style="stroke:#000000;" x="158.177738" xlink:href="#mfe7142ecd5" y="221.664061"/>
     <use style="stroke:#000000;" x="162.950243" xlink:href="#mfe7142ecd5" y="220.744525"/>
     <use style="stroke:#000000;" x="167.722748" xlink:href="#mfe7142ecd5" y="219.652294"/>
     <use style="stroke:#000000;" x="172.495252" xlink:href="#mfe7142ecd5" y="218.37139"/>
     <use style="stroke:#000000;" x="177.267757" xlink:href="#mfe7142ecd5" y="216.888635"/>
     <use style="stroke:#000000;" x="182.040262" xlink:href="#mfe7142ecd5" y="215.194896"/>
     <use style="stroke:#000000;" x="186.812766" xlink:href="#mfe7142ecd5" y="213.286355"/>
     <use style="stroke:#000000;" x="191.585271" xlink:href="#mfe7142ecd5" y="211.165753"/>
     <use style="stroke:#000000;" x="196.357776" xlink:href="#mfe7142ecd5" y="208.843494"/>
     <use style="stroke:#000000;" x="201.13028" xlink:href="#mfe7142ecd5" y="206.338527"/>
     <use style="stroke:#000000;" x="205.902785" xlink:href="#mfe7142ecd5" y="203.678901"/>
     <use style="stroke:#000000;" x="210.675289" xlink:href="#mfe7142ecd5" y="200.901895"/>
     <use style="stroke:#000000;" x="215.447794" xlink:href="#mfe7142ecd5" y="198.053661"/>
     <use style="stroke:#000000;" x="220.220299" xlink:href="#mfe7142ecd5" y="195.188336"/>
     <use style="stroke:#000000;" x="224.992803" xlink:href="#mfe7142ecd5" y="192.366605"/>
     <use style="stroke:#000000;" x="229.765308" xlink:href="#mfe7142ecd5" y="189.653745"/>
     <use style="stroke:#000000;" x="234.537813" xlink:href="#mfe7142ecd5" y="187.117238"/>
     <use style="stroke:#000000;" x="239.310317" xlink:href="#mfe7142ecd5" y="184.824045"/>
     <use style="stroke:#000000;" x="244.082822" xlink:href="#mfe7142ecd5" y="182.837709"/>
     <use style="stroke:#000000;" x="248.855327" xlink:href="#mfe7142ecd5" y="181.215445"/>
     <use style="stroke:#000000;" x="253.627831" xlink:href="#mfe7142ecd5" y="180.005409"/>
     <use style="stroke:#000000;" x="258.400336" xlink:href="#mfe7142ecd5" y="179.244324"/>
     <use style="stroke:#000000;" x="263.17284" xlink:href="#mfe7142ecd5" y="178.955632"/>
     <use style="stroke:#000000;" x="267.945345" xlink:href="#mfe7142ecd5" y="179.148293"/>
     <use style="stroke:#000000;" x="272.71785" xlink:href="#mfe7142ecd5" y="179.816324"/>
     <use style="stroke:#000000;" x="277.490354" xlink:href="#mfe7142ecd5" y="180.939106"/>
     <use style="stroke:#000000;" x="282.262859" xlink:href="#mfe7142ecd5" y="182.482443"/>
     <use style="stroke:#000000;" x="287.035364" xlink:href="#mfe7142ecd5" y="184.400289"/>
    </g>
   </g>
   <g id="patch_3">
    <path d="M 41.49 234.5328 
L 41.49 31.6224 
" style="fill:none;stroke:#000000;stroke-linecap:square;stroke-linejoin:miter;stroke-width:0.8;"/>
   </g>
   <g id="patch_4">
    <path d="M 298.728 234.5328 
L 298.728 31.6224 
" style="fill:none;stroke:#000000;stroke-linecap:square;stroke-linejoin:miter;stroke-width:0.8;"/>
   </g>
   <g id="patch_5">
    <path d="M 41.49 234.5328 
L 298.728 234.5328 
" style="fill:none;stroke:#000000;stroke-linecap:square;stroke-linejoin:miter;stroke-width:0.8;"/>
   </g>
   <g id="patch_6">
    <path d="M 41.49 31.6224 
L 298.728 31.6224 
" style="fill:none;stroke:#000000;stroke-linecap:square;stroke-linejoin:miter;stroke-width:0.8;"/>
   </g>
  </g>
 </g>
 <defs>
  <clipPath id="pc2669d015e">
   <rect height="202.9104" width="257.238" x="41.49" y="31.6224"/>
  </clipPath>
 </defs>
</svg>
