<?xml version="1.0" encoding="utf-8" standalone="no"?>
<!DOCTYPE svg PUBLIC "-//W3C//DTD SVG 1.1//EN"
  "http://www.w3.org/Graphics/SVG/1.1/DTD/svg11.dtd">
<!-- Created with matplotlib (https://matplotlib.org/) -->
<svg height="282.24pt" version="1.1" viewBox="0 0 376.56 282.24" width="376.56pt" xmlns="http://www.w3.org/2000/svg" xmlns:xlink="http://www.w3.org/1999/xlink">
 <defs>
  <style type="text/css">
*{stroke-linecap:butt;stroke-linejoin:round;white-space:pre;}
  </style>
 </defs>
 <g id="figure_1">
  <g id="patch_1">
   <path d="M 0 282.24 
L 376.56 282.24 
L 376.56 0 
L 0 0 
z
" style="fill:#ffffff;"/>
  </g>
  <g id="axes_1">
   <g id="patch_2">
    <path d="M 47.07 251.1936 
L 179.721818 251.1936 
L 179.721818 33.8688 
L 47.07 33.8688 
z
" style="fill:#ffffff;"/>
   </g>
   <g id="matplotlib.axis_1">
    <g id="xtick_1">
     <g id="line2d_1">
      <defs>
       <path d="M 0 0 
L 0 3.5 
" id="m2a57ce37c4" style="stroke:#000000;stroke-width:0.8;"/>
      </defs>
      <g>
       <use style="stroke:#000000;stroke-width:0.8;" x="53.099628" xlink:href="#m2a57ce37c4" y="251.1936"/>
      </g>
     </g>
     <g id="text_1">
      <!-- 0 -->
      <defs>
       <path d="M 31.78125 66.40625 
Q 24.171875 66.40625 20.328125 58.90625 
Q 16.5 51.421875 16.5 36.375 
Q 16.5 21.390625 20.328125 13.890625 
Q 24.171875 6.390625 31.78125 6.390625 
Q 39.453125 6.390625 43.28125 13.890625 
Q 47.125 21.390625 47.125 36.375 
Q 47.125 51.421875 43.28125 58.90625 
Q 39.453125 66.40625 31.78125 66.40625 
z
M 31.78125 74.21875 
Q 44.046875 74.21875 50.515625 64.515625 
Q 56.984375 54.828125 56.984375 36.375 
Q 56.984375 17.96875 50.515625 8.265625 
Q 44.046875 -1.421875 31.78125 -1.421875 
Q 19.53125 -1.421875 13.0625 8.265625 
Q 6.59375 17.96875 6.59375 36.375 
Q 6.59375 54.828125 13.0625 64.515625 
Q 19.53125 74.21875 31.78125 74.21875 
z
" id="DejaVuSans-48"/>
      </defs>
      <g transform="translate(49.918378 265.792037)scale(0.1 -0.1)">
       <use xlink:href="#DejaVuSans-48"/>
      </g>
     </g>
    </g>
    <g id="xtick_2">
     <g id="line2d_2">
      <g>
       <use style="stroke:#000000;stroke-width:0.8;" x="113.395909" xlink:href="#m2a57ce37c4" y="251.1936"/>
      </g>
     </g>
     <g id="text_2">
      <!-- 1 -->
      <defs>
       <path d="M 12.40625 8.296875 
L 28.515625 8.296875 
L 28.515625 63.921875 
L 10.984375 60.40625 
L 10.984375 69.390625 
L 28.421875 72.90625 
L 38.28125 72.90625 
L 38.28125 8.296875 
L 54.390625 8.296875 
L 54.390625 0 
L 12.40625 0 
z
" id="DejaVuSans-49"/>
      </defs>
      <g transform="translate(110.214659 265.792037)scale(0.1 -0.1)">
       <use xlink:href="#DejaVuSans-49"/>
      </g>
     </g>
    </g>
    <g id="xtick_3">
     <g id="line2d_3">
      <g>
       <use style="stroke:#000000;stroke-width:0.8;" x="173.69219" xlink:href="#m2a57ce37c4" y="251.1936"/>
      </g>
     </g>
     <g id="text_3">
      <!-- 2 -->
      <defs>
       <path d="M 19.1875 8.296875 
L 53.609375 8.296875 
L 53.609375 0 
L 7.328125 0 
L 7.328125 8.296875 
Q 12.9375 14.109375 22.625 23.890625 
Q 32.328125 33.6875 34.8125 36.53125 
Q 39.546875 41.84375 41.421875 45.53125 
Q 43.3125 49.21875 43.3125 52.78125 
Q 43.3125 58.59375 39.234375 62.25 
Q 35.15625 65.921875 28.609375 65.921875 
Q 23.96875 65.921875 18.8125 64.3125 
Q 13.671875 62.703125 7.8125 59.421875 
L 7.8125 69.390625 
Q 13.765625 71.78125 18.9375 73 
Q 24.125 74.21875 28.421875 74.21875 
Q 39.75 74.21875 46.484375 68.546875 
Q 53.21875 62.890625 53.21875 53.421875 
Q 53.21875 48.921875 51.53125 44.890625 
Q 49.859375 40.875 45.40625 35.40625 
Q 44.1875 33.984375 37.640625 27.21875 
Q 31.109375 20.453125 19.1875 8.296875 
z
" id="DejaVuSans-50"/>
      </defs>
      <g transform="translate(170.51094 265.792037)scale(0.1 -0.1)">
       <use xlink:href="#DejaVuSans-50"/>
      </g>
     </g>
    </g>
   </g>
   <g id="matplotlib.axis_2">
    <g id="ytick_1">
     <g id="line2d_4">
      <defs>
       <path d="M 0 0 
L -3.5 0 
" id="md2e53f4140" style="stroke:#000000;stroke-width:0.8;"/>
      </defs>
      <g>
       <use style="stroke:#000000;stroke-width:0.8;" x="47.07" xlink:href="#md2e53f4140" y="243.645058"/>
      </g>
     </g>
     <g id="text_4">
      <!-- 0.0 -->
      <defs>
       <path d="M 10.6875 12.40625 
L 21 12.40625 
L 21 0 
L 10.6875 0 
z
" id="DejaVuSans-46"/>
      </defs>
      <g transform="translate(24.166875 247.444276)scale(0.1 -0.1)">
       <use xlink:href="#DejaVuSans-48"/>
       <use x="63.623047" xlink:href="#DejaVuSans-46"/>
       <use x="95.410156" xlink:href="#DejaVuSans-48"/>
      </g>
     </g>
    </g>
    <g id="ytick_2">
     <g id="line2d_5">
      <g>
       <use style="stroke:#000000;stroke-width:0.8;" x="47.07" xlink:href="#md2e53f4140" y="203.486613"/>
      </g>
     </g>
     <g id="text_5">
      <!-- 0.2 -->
      <g transform="translate(24.166875 207.285832)scale(0.1 -0.1)">
       <use xlink:href="#DejaVuSans-48"/>
       <use x="63.623047" xlink:href="#DejaVuSans-46"/>
       <use x="95.410156" xlink:href="#DejaVuSans-50"/>
      </g>
     </g>
    </g>
    <g id="ytick_3">
     <g id="line2d_6">
      <g>
       <use style="stroke:#000000;stroke-width:0.8;" x="47.07" xlink:href="#md2e53f4140" y="163.328168"/>
      </g>
     </g>
     <g id="text_6">
      <!-- 0.4 -->
      <defs>
       <path d="M 37.796875 64.3125 
L 12.890625 25.390625 
L 37.796875 25.390625 
z
M 35.203125 72.90625 
L 47.609375 72.90625 
L 47.609375 25.390625 
L 58.015625 25.390625 
L 58.015625 17.1875 
L 47.609375 17.1875 
L 47.609375 0 
L 37.796875 0 
L 37.796875 17.1875 
L 4.890625 17.1875 
L 4.890625 26.703125 
z
" id="DejaVuSans-52"/>
      </defs>
      <g transform="translate(24.166875 167.127387)scale(0.1 -0.1)">
       <use xlink:href="#DejaVuSans-48"/>
       <use x="63.623047" xlink:href="#DejaVuSans-46"/>
       <use x="95.410156" xlink:href="#DejaVuSans-52"/>
      </g>
     </g>
    </g>
    <g id="ytick_4">
     <g id="line2d_7">
      <g>
       <use style="stroke:#000000;stroke-width:0.8;" x="47.07" xlink:href="#md2e53f4140" y="123.169724"/>
      </g>
     </g>
     <g id="text_7">
      <!-- 0.6 -->
      <defs>
       <path d="M 33.015625 40.375 
Q 26.375 40.375 22.484375 35.828125 
Q 18.609375 31.296875 18.609375 23.390625 
Q 18.609375 15.53125 22.484375 10.953125 
Q 26.375 6.390625 33.015625 6.390625 
Q 39.65625 6.390625 43.53125 10.953125 
Q 47.40625 15.53125 47.40625 23.390625 
Q 47.40625 31.296875 43.53125 35.828125 
Q 39.65625 40.375 33.015625 40.375 
z
M 52.59375 71.296875 
L 52.59375 62.3125 
Q 48.875 64.0625 45.09375 64.984375 
Q 41.3125 65.921875 37.59375 65.921875 
Q 27.828125 65.921875 22.671875 59.328125 
Q 17.53125 52.734375 16.796875 39.40625 
Q 19.671875 43.65625 24.015625 45.921875 
Q 28.375 48.1875 33.59375 48.1875 
Q 44.578125 48.1875 50.953125 41.515625 
Q 57.328125 34.859375 57.328125 23.390625 
Q 57.328125 12.15625 50.6875 5.359375 
Q 44.046875 -1.421875 33.015625 -1.421875 
Q 20.359375 -1.421875 13.671875 8.265625 
Q 6.984375 17.96875 6.984375 36.375 
Q 6.984375 53.65625 15.1875 63.9375 
Q 23.390625 74.21875 37.203125 74.21875 
Q 40.921875 74.21875 44.703125 73.484375 
Q 48.484375 72.75 52.59375 71.296875 
z
" id="DejaVuSans-54"/>
      </defs>
      <g transform="translate(24.166875 126.968943)scale(0.1 -0.1)">
       <use xlink:href="#DejaVuSans-48"/>
       <use x="63.623047" xlink:href="#DejaVuSans-46"/>
       <use x="95.410156" xlink:href="#DejaVuSans-54"/>
      </g>
     </g>
    </g>
    <g id="ytick_5">
     <g id="line2d_8">
      <g>
       <use style="stroke:#000000;stroke-width:0.8;" x="47.07" xlink:href="#md2e53f4140" y="83.011279"/>
      </g>
     </g>
     <g id="text_8">
      <!-- 0.8 -->
      <defs>
       <path d="M 31.78125 34.625 
Q 24.75 34.625 20.71875 30.859375 
Q 16.703125 27.09375 16.703125 20.515625 
Q 16.703125 13.921875 20.71875 10.15625 
Q 24.75 6.390625 31.78125 6.390625 
Q 38.8125 6.390625 42.859375 10.171875 
Q 46.921875 13.96875 46.921875 20.515625 
Q 46.921875 27.09375 42.890625 30.859375 
Q 38.875 34.625 31.78125 34.625 
z
M 21.921875 38.8125 
Q 15.578125 40.375 12.03125 44.71875 
Q 8.5 49.078125 8.5 55.328125 
Q 8.5 64.0625 14.71875 69.140625 
Q 20.953125 74.21875 31.78125 74.21875 
Q 42.671875 74.21875 48.875 69.140625 
Q 55.078125 64.0625 55.078125 55.328125 
Q 55.078125 49.078125 51.53125 44.71875 
Q 48 40.375 41.703125 38.8125 
Q 48.828125 37.15625 52.796875 32.3125 
Q 56.78125 27.484375 56.78125 20.515625 
Q 56.78125 9.90625 50.3125 4.234375 
Q 43.84375 -1.421875 31.78125 -1.421875 
Q 19.734375 -1.421875 13.25 4.234375 
Q 6.78125 9.90625 6.78125 20.515625 
Q 6.78125 27.484375 10.78125 32.3125 
Q 14.796875 37.15625 21.921875 38.8125 
z
M 18.3125 54.390625 
Q 18.3125 48.734375 21.84375 45.5625 
Q 25.390625 42.390625 31.78125 42.390625 
Q 38.140625 42.390625 41.71875 45.5625 
Q 45.3125 48.734375 45.3125 54.390625 
Q 45.3125 60.0625 41.71875 63.234375 
Q 38.140625 66.40625 31.78125 66.40625 
Q 25.390625 66.40625 21.84375 63.234375 
Q 18.3125 60.0625 18.3125 54.390625 
z
" id="DejaVuSans-56"/>
      </defs>
      <g transform="translate(24.166875 86.810498)scale(0.1 -0.1)">
       <use xlink:href="#DejaVuSans-48"/>
       <use x="63.623047" xlink:href="#DejaVuSans-46"/>
       <use x="95.410156" xlink:href="#DejaVuSans-56"/>
      </g>
     </g>
    </g>
    <g id="ytick_6">
     <g id="line2d_9">
      <g>
       <use style="stroke:#000000;stroke-width:0.8;" x="47.07" xlink:href="#md2e53f4140" y="42.852835"/>
      </g>
     </g>
     <g id="text_9">
      <!-- 1.0 -->
      <g transform="translate(24.166875 46.652053)scale(0.1 -0.1)">
       <use xlink:href="#DejaVuSans-49"/>
       <use x="63.623047" xlink:href="#DejaVuSans-46"/>
       <use x="95.410156" xlink:href="#DejaVuSans-48"/>
      </g>
     </g>
    </g>
   </g>
   <g id="line2d_10">
    <defs>
     <path d="M 0 3 
C 0.795609 3 1.55874 2.683901 2.12132 2.12132 
C 2.683901 1.55874 3 0.795609 3 0 
C 3 -0.795609 2.683901 -1.55874 2.12132 -2.12132 
C 1.55874 -2.683901 0.795609 -3 0 -3 
C -0.795609 -3 -1.55874 -2.683901 -2.12132 -2.12132 
C -2.683901 -1.55874 -3 -0.795609 -3 0 
C -3 0.795609 -2.683901 1.55874 -2.12132 2.12132 
C -1.55874 2.683901 -0.795609 3 0 3 
z
" id="m8f4752390d" style="stroke:#ff0000;"/>
    </defs>
    <g clip-path="url(#p826b1358ce)">
     <use style="fill:#ff0000;stroke:#ff0000;" x="53.099628" xlink:href="#m8f4752390d" y="213.400482"/>
     <use style="fill:#ff0000;stroke:#ff0000;" x="54.317735" xlink:href="#m8f4752390d" y="168.064416"/>
     <use style="fill:#ff0000;stroke:#ff0000;" x="55.535841" xlink:href="#m8f4752390d" y="77.732198"/>
     <use style="fill:#ff0000;stroke:#ff0000;" x="56.753948" xlink:href="#m8f4752390d" y="80.790572"/>
     <use style="fill:#ff0000;stroke:#ff0000;" x="57.972055" xlink:href="#m8f4752390d" y="74.735444"/>
     <use style="fill:#ff0000;stroke:#ff0000;" x="59.190162" xlink:href="#m8f4752390d" y="117.614405"/>
     <use style="fill:#ff0000;stroke:#ff0000;" x="60.408268" xlink:href="#m8f4752390d" y="146.88316"/>
     <use style="fill:#ff0000;stroke:#ff0000;" x="61.626375" xlink:href="#m8f4752390d" y="156.206135"/>
     <use style="fill:#ff0000;stroke:#ff0000;" x="62.844482" xlink:href="#m8f4752390d" y="99.844872"/>
     <use style="fill:#ff0000;stroke:#ff0000;" x="64.062588" xlink:href="#m8f4752390d" y="79.228519"/>
     <use style="fill:#ff0000;stroke:#ff0000;" x="65.280695" xlink:href="#m8f4752390d" y="144.619638"/>
     <use style="fill:#ff0000;stroke:#ff0000;" x="66.498802" xlink:href="#m8f4752390d" y="97.544432"/>
     <use style="fill:#ff0000;stroke:#ff0000;" x="67.716908" xlink:href="#m8f4752390d" y="232.457022"/>
     <use style="fill:#ff0000;stroke:#ff0000;" x="68.935015" xlink:href="#m8f4752390d" y="219.593687"/>
     <use style="fill:#ff0000;stroke:#ff0000;" x="70.153122" xlink:href="#m8f4752390d" y="215.632805"/>
     <use style="fill:#ff0000;stroke:#ff0000;" x="71.371228" xlink:href="#m8f4752390d" y="241.3152"/>
     <use style="fill:#ff0000;stroke:#ff0000;" x="72.589335" xlink:href="#m8f4752390d" y="83.991855"/>
     <use style="fill:#ff0000;stroke:#ff0000;" x="73.807442" xlink:href="#m8f4752390d" y="209.474354"/>
     <use style="fill:#ff0000;stroke:#ff0000;" x="75.025548" xlink:href="#m8f4752390d" y="238.479613"/>
     <use style="fill:#ff0000;stroke:#ff0000;" x="76.243655" xlink:href="#m8f4752390d" y="209.612362"/>
     <use style="fill:#ff0000;stroke:#ff0000;" x="77.461762" xlink:href="#m8f4752390d" y="130.698102"/>
     <use style="fill:#ff0000;stroke:#ff0000;" x="78.679869" xlink:href="#m8f4752390d" y="160.763014"/>
     <use style="fill:#ff0000;stroke:#ff0000;" x="79.897975" xlink:href="#m8f4752390d" y="179.096157"/>
     <use style="fill:#ff0000;stroke:#ff0000;" x="81.116082" xlink:href="#m8f4752390d" y="107.259992"/>
     <use style="fill:#ff0000;stroke:#ff0000;" x="82.334189" xlink:href="#m8f4752390d" y="164.291398"/>
     <use style="fill:#ff0000;stroke:#ff0000;" x="83.552295" xlink:href="#m8f4752390d" y="185.422127"/>
     <use style="fill:#ff0000;stroke:#ff0000;" x="84.770402" xlink:href="#m8f4752390d" y="140.337831"/>
     <use style="fill:#ff0000;stroke:#ff0000;" x="85.988509" xlink:href="#m8f4752390d" y="206.204052"/>
     <use style="fill:#ff0000;stroke:#ff0000;" x="87.206615" xlink:href="#m8f4752390d" y="181.228072"/>
     <use style="fill:#ff0000;stroke:#ff0000;" x="88.424722" xlink:href="#m8f4752390d" y="189.486832"/>
     <use style="fill:#ff0000;stroke:#ff0000;" x="89.642829" xlink:href="#m8f4752390d" y="119.766754"/>
     <use style="fill:#ff0000;stroke:#ff0000;" x="90.860935" xlink:href="#m8f4752390d" y="176.640604"/>
     <use style="fill:#ff0000;stroke:#ff0000;" x="92.079042" xlink:href="#m8f4752390d" y="176.76626"/>
     <use style="fill:#ff0000;stroke:#ff0000;" x="93.297149" xlink:href="#m8f4752390d" y="147.419418"/>
     <use style="fill:#ff0000;stroke:#ff0000;" x="94.515255" xlink:href="#m8f4752390d" y="214.168478"/>
     <use style="fill:#ff0000;stroke:#ff0000;" x="95.733362" xlink:href="#m8f4752390d" y="84.249116"/>
     <use style="fill:#ff0000;stroke:#ff0000;" x="96.951469" xlink:href="#m8f4752390d" y="120.521894"/>
     <use style="fill:#ff0000;stroke:#ff0000;" x="98.169576" xlink:href="#m8f4752390d" y="128.955792"/>
     <use style="fill:#ff0000;stroke:#ff0000;" x="99.387682" xlink:href="#m8f4752390d" y="240.864241"/>
     <use style="fill:#ff0000;stroke:#ff0000;" x="100.605789" xlink:href="#m8f4752390d" y="84.831366"/>
     <use style="fill:#ff0000;stroke:#ff0000;" x="101.823896" xlink:href="#m8f4752390d" y="186.068191"/>
     <use style="fill:#ff0000;stroke:#ff0000;" x="103.042002" xlink:href="#m8f4752390d" y="237.531787"/>
     <use style="fill:#ff0000;stroke:#ff0000;" x="104.260109" xlink:href="#m8f4752390d" y="119.385581"/>
     <use style="fill:#ff0000;stroke:#ff0000;" x="105.478216" xlink:href="#m8f4752390d" y="97.886166"/>
     <use style="fill:#ff0000;stroke:#ff0000;" x="106.696322" xlink:href="#m8f4752390d" y="240.644553"/>
     <use style="fill:#ff0000;stroke:#ff0000;" x="107.914429" xlink:href="#m8f4752390d" y="191.53301"/>
     <use style="fill:#ff0000;stroke:#ff0000;" x="109.132536" xlink:href="#m8f4752390d" y="179.966494"/>
     <use style="fill:#ff0000;stroke:#ff0000;" x="110.350642" xlink:href="#m8f4752390d" y="53.462568"/>
     <use style="fill:#ff0000;stroke:#ff0000;" x="111.568749" xlink:href="#m8f4752390d" y="54.379985"/>
     <use style="fill:#ff0000;stroke:#ff0000;" x="112.786856" xlink:href="#m8f4752390d" y="149.440072"/>
     <use style="fill:#ff0000;stroke:#ff0000;" x="114.004962" xlink:href="#m8f4752390d" y="75.288574"/>
     <use style="fill:#ff0000;stroke:#ff0000;" x="115.223069" xlink:href="#m8f4752390d" y="137.583611"/>
     <use style="fill:#ff0000;stroke:#ff0000;" x="116.441176" xlink:href="#m8f4752390d" y="221.092669"/>
     <use style="fill:#ff0000;stroke:#ff0000;" x="117.659282" xlink:href="#m8f4752390d" y="136.935926"/>
     <use style="fill:#ff0000;stroke:#ff0000;" x="118.877389" xlink:href="#m8f4752390d" y="147.958973"/>
     <use style="fill:#ff0000;stroke:#ff0000;" x="120.095496" xlink:href="#m8f4752390d" y="96.466296"/>
     <use style="fill:#ff0000;stroke:#ff0000;" x="121.313603" xlink:href="#m8f4752390d" y="215.035574"/>
     <use style="fill:#ff0000;stroke:#ff0000;" x="122.531709" xlink:href="#m8f4752390d" y="74.69836"/>
     <use style="fill:#ff0000;stroke:#ff0000;" x="123.749816" xlink:href="#m8f4752390d" y="83.214293"/>
     <use style="fill:#ff0000;stroke:#ff0000;" x="124.967923" xlink:href="#m8f4752390d" y="72.0409"/>
     <use style="fill:#ff0000;stroke:#ff0000;" x="126.186029" xlink:href="#m8f4752390d" y="60.702753"/>
     <use style="fill:#ff0000;stroke:#ff0000;" x="127.404136" xlink:href="#m8f4752390d" y="60.136046"/>
     <use style="fill:#ff0000;stroke:#ff0000;" x="128.622243" xlink:href="#m8f4752390d" y="202.094607"/>
     <use style="fill:#ff0000;stroke:#ff0000;" x="129.840349" xlink:href="#m8f4752390d" y="59.783241"/>
     <use style="fill:#ff0000;stroke:#ff0000;" x="131.058456" xlink:href="#m8f4752390d" y="161.097177"/>
     <use style="fill:#ff0000;stroke:#ff0000;" x="132.276563" xlink:href="#m8f4752390d" y="194.401684"/>
     <use style="fill:#ff0000;stroke:#ff0000;" x="133.494669" xlink:href="#m8f4752390d" y="81.946396"/>
     <use style="fill:#ff0000;stroke:#ff0000;" x="134.712776" xlink:href="#m8f4752390d" y="210.802753"/>
     <use style="fill:#ff0000;stroke:#ff0000;" x="135.930883" xlink:href="#m8f4752390d" y="149.010153"/>
     <use style="fill:#ff0000;stroke:#ff0000;" x="137.148989" xlink:href="#m8f4752390d" y="229.63411"/>
     <use style="fill:#ff0000;stroke:#ff0000;" x="138.367096" xlink:href="#m8f4752390d" y="163.414874"/>
     <use style="fill:#ff0000;stroke:#ff0000;" x="139.585203" xlink:href="#m8f4752390d" y="183.575747"/>
     <use style="fill:#ff0000;stroke:#ff0000;" x="140.80331" xlink:href="#m8f4752390d" y="170.820749"/>
     <use style="fill:#ff0000;stroke:#ff0000;" x="142.021416" xlink:href="#m8f4752390d" y="98.23167"/>
     <use style="fill:#ff0000;stroke:#ff0000;" x="143.239523" xlink:href="#m8f4752390d" y="94.763439"/>
     <use style="fill:#ff0000;stroke:#ff0000;" x="144.45763" xlink:href="#m8f4752390d" y="63.389596"/>
     <use style="fill:#ff0000;stroke:#ff0000;" x="145.675736" xlink:href="#m8f4752390d" y="146.066313"/>
     <use style="fill:#ff0000;stroke:#ff0000;" x="146.893843" xlink:href="#m8f4752390d" y="107.076988"/>
     <use style="fill:#ff0000;stroke:#ff0000;" x="148.11195" xlink:href="#m8f4752390d" y="231.337284"/>
     <use style="fill:#ff0000;stroke:#ff0000;" x="149.330056" xlink:href="#m8f4752390d" y="234.780118"/>
     <use style="fill:#ff0000;stroke:#ff0000;" x="150.548163" xlink:href="#m8f4752390d" y="206.493131"/>
     <use style="fill:#ff0000;stroke:#ff0000;" x="151.76627" xlink:href="#m8f4752390d" y="143.242101"/>
     <use style="fill:#ff0000;stroke:#ff0000;" x="152.984376" xlink:href="#m8f4752390d" y="89.895499"/>
     <use style="fill:#ff0000;stroke:#ff0000;" x="154.202483" xlink:href="#m8f4752390d" y="191.819386"/>
     <use style="fill:#ff0000;stroke:#ff0000;" x="155.42059" xlink:href="#m8f4752390d" y="207.83232"/>
     <use style="fill:#ff0000;stroke:#ff0000;" x="156.638696" xlink:href="#m8f4752390d" y="119.82534"/>
     <use style="fill:#ff0000;stroke:#ff0000;" x="157.856803" xlink:href="#m8f4752390d" y="43.867231"/>
     <use style="fill:#ff0000;stroke:#ff0000;" x="159.07491" xlink:href="#m8f4752390d" y="83.06609"/>
     <use style="fill:#ff0000;stroke:#ff0000;" x="160.293017" xlink:href="#m8f4752390d" y="153.242208"/>
     <use style="fill:#ff0000;stroke:#ff0000;" x="161.511123" xlink:href="#m8f4752390d" y="49.195436"/>
     <use style="fill:#ff0000;stroke:#ff0000;" x="162.72923" xlink:href="#m8f4752390d" y="110.806899"/>
     <use style="fill:#ff0000;stroke:#ff0000;" x="163.947337" xlink:href="#m8f4752390d" y="182.17495"/>
     <use style="fill:#ff0000;stroke:#ff0000;" x="165.165443" xlink:href="#m8f4752390d" y="113.162198"/>
     <use style="fill:#ff0000;stroke:#ff0000;" x="166.38355" xlink:href="#m8f4752390d" y="43.7472"/>
     <use style="fill:#ff0000;stroke:#ff0000;" x="167.601657" xlink:href="#m8f4752390d" y="80.057003"/>
     <use style="fill:#ff0000;stroke:#ff0000;" x="168.819763" xlink:href="#m8f4752390d" y="83.273994"/>
     <use style="fill:#ff0000;stroke:#ff0000;" x="170.03787" xlink:href="#m8f4752390d" y="240.249398"/>
     <use style="fill:#ff0000;stroke:#ff0000;" x="171.255977" xlink:href="#m8f4752390d" y="55.991646"/>
     <use style="fill:#ff0000;stroke:#ff0000;" x="172.474083" xlink:href="#m8f4752390d" y="111.689066"/>
     <use style="fill:#ff0000;stroke:#ff0000;" x="173.69219" xlink:href="#m8f4752390d" y="185.747949"/>
    </g>
   </g>
   <g id="patch_3">
    <path d="M 47.07 251.1936 
L 47.07 33.8688 
" style="fill:none;stroke:#000000;stroke-linecap:square;stroke-linejoin:miter;stroke-width:0.8;"/>
   </g>
   <g id="patch_4">
    <path d="M 179.721818 251.1936 
L 179.721818 33.8688 
" style="fill:none;stroke:#000000;stroke-linecap:square;stroke-linejoin:miter;stroke-width:0.8;"/>
   </g>
   <g id="patch_5">
    <path d="M 47.07 251.1936 
L 179.721818 251.1936 
" style="fill:none;stroke:#000000;stroke-linecap:square;stroke-linejoin:miter;stroke-width:0.8;"/>
   </g>
   <g id="patch_6">
    <path d="M 47.07 33.8688 
L 179.721818 33.8688 
" style="fill:none;stroke:#000000;stroke-linecap:square;stroke-linejoin:miter;stroke-width:0.8;"/>
   </g>
   <g id="text_10">
    <!-- Tytuł 1 -->
    <defs>
     <path d="M -0.296875 72.90625 
L 61.375 72.90625 
L 61.375 64.59375 
L 35.5 64.59375 
L 35.5 0 
L 25.59375 0 
L 25.59375 64.59375 
L -0.296875 64.59375 
z
" id="DejaVuSans-84"/>
     <path d="M 32.171875 -5.078125 
Q 28.375 -14.84375 24.75 -17.8125 
Q 21.140625 -20.796875 15.09375 -20.796875 
L 7.90625 -20.796875 
L 7.90625 -13.28125 
L 13.1875 -13.28125 
Q 16.890625 -13.28125 18.9375 -11.515625 
Q 21 -9.765625 23.484375 -3.21875 
L 25.09375 0.875 
L 2.984375 54.6875 
L 12.5 54.6875 
L 29.59375 11.921875 
L 46.6875 54.6875 
L 56.203125 54.6875 
z
" id="DejaVuSans-121"/>
     <path d="M 18.3125 70.21875 
L 18.3125 54.6875 
L 36.8125 54.6875 
L 36.8125 47.703125 
L 18.3125 47.703125 
L 18.3125 18.015625 
Q 18.3125 11.328125 20.140625 9.421875 
Q 21.96875 7.515625 27.59375 7.515625 
L 36.8125 7.515625 
L 36.8125 0 
L 27.59375 0 
Q 17.1875 0 13.234375 3.875 
Q 9.28125 7.765625 9.28125 18.015625 
L 9.28125 47.703125 
L 2.6875 47.703125 
L 2.6875 54.6875 
L 9.28125 54.6875 
L 9.28125 70.21875 
z
" id="DejaVuSans-116"/>
     <path d="M 8.5 21.578125 
L 8.5 54.6875 
L 17.484375 54.6875 
L 17.484375 21.921875 
Q 17.484375 14.15625 20.5 10.265625 
Q 23.53125 6.390625 29.59375 6.390625 
Q 36.859375 6.390625 41.078125 11.03125 
Q 45.3125 15.671875 45.3125 23.6875 
L 45.3125 54.6875 
L 54.296875 54.6875 
L 54.296875 0 
L 45.3125 0 
L 45.3125 8.40625 
Q 42.046875 3.421875 37.71875 1 
Q 33.40625 -1.421875 27.6875 -1.421875 
Q 18.265625 -1.421875 13.375 4.4375 
Q 8.5 10.296875 8.5 21.578125 
z
M 31.109375 56 
z
" id="DejaVuSans-117"/>
     <path d="M 9.71875 75.984375 
L 18.703125 75.984375 
L 18.703125 46.578125 
L 24.8125 50.984375 
L 28.515625 45.796875 
L 18.703125 38.921875 
L 18.703125 0 
L 9.71875 0 
L 9.71875 32.515625 
L 3.71875 28.21875 
L 0.09375 33.40625 
L 9.71875 40.28125 
z
" id="DejaVuSans-322"/>
     <path id="DejaVuSans-32"/>
    </defs>
    <g transform="translate(92.609659 27.8688)scale(0.12 -0.12)">
     <use xlink:href="#DejaVuSans-84"/>
     <use x="60.849609" xlink:href="#DejaVuSans-121"/>
     <use x="120.029297" xlink:href="#DejaVuSans-116"/>
     <use x="159.238281" xlink:href="#DejaVuSans-117"/>
     <use x="222.617188" xlink:href="#DejaVuSans-322"/>
     <use x="251.035156" xlink:href="#DejaVuSans-32"/>
     <use x="282.822266" xlink:href="#DejaVuSans-49"/>
    </g>
   </g>
  </g>
  <g id="axes_2">
   <g id="patch_7">
    <path d="M 206.252182 251.1936 
L 338.904 251.1936 
L 338.904 33.8688 
L 206.252182 33.8688 
z
" style="fill:#ffffff;"/>
   </g>
   <g id="matplotlib.axis_3">
    <g id="xtick_4">
     <g id="line2d_11">
      <g>
       <use style="stroke:#000000;stroke-width:0.8;" x="212.28181" xlink:href="#m2a57ce37c4" y="251.1936"/>
      </g>
     </g>
     <g id="text_11">
      <!-- 0 -->
      <g transform="translate(209.10056 265.792037)scale(0.1 -0.1)">
       <use xlink:href="#DejaVuSans-48"/>
      </g>
     </g>
    </g>
    <g id="xtick_5">
     <g id="line2d_12">
      <g>
       <use style="stroke:#000000;stroke-width:0.8;" x="272.578091" xlink:href="#m2a57ce37c4" y="251.1936"/>
      </g>
     </g>
     <g id="text_12">
      <!-- 1 -->
      <g transform="translate(269.396841 265.792037)scale(0.1 -0.1)">
       <use xlink:href="#DejaVuSans-49"/>
      </g>
     </g>
    </g>
    <g id="xtick_6">
     <g id="line2d_13">
      <g>
       <use style="stroke:#000000;stroke-width:0.8;" x="332.874372" xlink:href="#m2a57ce37c4" y="251.1936"/>
      </g>
     </g>
     <g id="text_13">
      <!-- 2 -->
      <g transform="translate(329.693122 265.792037)scale(0.1 -0.1)">
       <use xlink:href="#DejaVuSans-50"/>
      </g>
     </g>
    </g>
   </g>
   <g id="matplotlib.axis_4">
    <g id="ytick_7">
     <g id="line2d_14">
      <g>
       <use style="stroke:#000000;stroke-width:0.8;" x="206.252182" xlink:href="#md2e53f4140" y="241.980841"/>
      </g>
     </g>
     <g id="text_14">
      <!-- 0.0 -->
      <g transform="translate(183.349057 245.78006)scale(0.1 -0.1)">
       <use xlink:href="#DejaVuSans-48"/>
       <use x="63.623047" xlink:href="#DejaVuSans-46"/>
       <use x="95.410156" xlink:href="#DejaVuSans-48"/>
      </g>
     </g>
    </g>
    <g id="ytick_8">
     <g id="line2d_15">
      <g>
       <use style="stroke:#000000;stroke-width:0.8;" x="206.252182" xlink:href="#md2e53f4140" y="201.758592"/>
      </g>
     </g>
     <g id="text_15">
      <!-- 0.2 -->
      <g transform="translate(183.349057 205.55781)scale(0.1 -0.1)">
       <use xlink:href="#DejaVuSans-48"/>
       <use x="63.623047" xlink:href="#DejaVuSans-46"/>
       <use x="95.410156" xlink:href="#DejaVuSans-50"/>
      </g>
     </g>
    </g>
    <g id="ytick_9">
     <g id="line2d_16">
      <g>
       <use style="stroke:#000000;stroke-width:0.8;" x="206.252182" xlink:href="#md2e53f4140" y="161.536342"/>
      </g>
     </g>
     <g id="text_16">
      <!-- 0.4 -->
      <g transform="translate(183.349057 165.335561)scale(0.1 -0.1)">
       <use xlink:href="#DejaVuSans-48"/>
       <use x="63.623047" xlink:href="#DejaVuSans-46"/>
       <use x="95.410156" xlink:href="#DejaVuSans-52"/>
      </g>
     </g>
    </g>
    <g id="ytick_10">
     <g id="line2d_17">
      <g>
       <use style="stroke:#000000;stroke-width:0.8;" x="206.252182" xlink:href="#md2e53f4140" y="121.314092"/>
      </g>
     </g>
     <g id="text_17">
      <!-- 0.6 -->
      <g transform="translate(183.349057 125.113311)scale(0.1 -0.1)">
       <use xlink:href="#DejaVuSans-48"/>
       <use x="63.623047" xlink:href="#DejaVuSans-46"/>
       <use x="95.410156" xlink:href="#DejaVuSans-54"/>
      </g>
     </g>
    </g>
    <g id="ytick_11">
     <g id="line2d_18">
      <g>
       <use style="stroke:#000000;stroke-width:0.8;" x="206.252182" xlink:href="#md2e53f4140" y="81.091843"/>
      </g>
     </g>
     <g id="text_18">
      <!-- 0.8 -->
      <g transform="translate(183.349057 84.891061)scale(0.1 -0.1)">
       <use xlink:href="#DejaVuSans-48"/>
       <use x="63.623047" xlink:href="#DejaVuSans-46"/>
       <use x="95.410156" xlink:href="#DejaVuSans-56"/>
      </g>
     </g>
    </g>
    <g id="ytick_12">
     <g id="line2d_19">
      <g>
       <use style="stroke:#000000;stroke-width:0.8;" x="206.252182" xlink:href="#md2e53f4140" y="40.869593"/>
      </g>
     </g>
     <g id="text_19">
      <!-- 1.0 -->
      <g transform="translate(183.349057 44.668812)scale(0.1 -0.1)">
       <use xlink:href="#DejaVuSans-49"/>
       <use x="63.623047" xlink:href="#DejaVuSans-46"/>
       <use x="95.410156" xlink:href="#DejaVuSans-48"/>
      </g>
     </g>
    </g>
   </g>
   <g id="line2d_20">
    <path clip-path="url(#p107bc55cb4)" d="M 212.28181 61.792399 
L 213.499917 50.239227 
L 214.718023 213.289415 
L 215.93613 170.47071 
L 217.154237 59.502165 
L 218.372343 228.404478 
L 219.59045 112.893034 
L 220.808557 115.06249 
L 222.026663 118.819699 
L 223.24477 67.960187 
L 224.462877 166.361575 
L 225.680983 159.129503 
L 226.89909 205.333857 
L 228.117197 229.468882 
L 229.335304 212.86393 
L 230.55341 48.833533 
L 231.771517 66.049102 
L 232.989624 104.465529 
L 234.20773 43.7472 
L 235.425837 132.598094 
L 236.643944 220.451719 
L 237.86205 161.42618 
L 239.080157 66.635946 
L 240.298264 51.538895 
L 241.51637 175.74568 
L 242.734477 46.187428 
L 243.952584 125.974278 
L 245.17069 235.068903 
L 246.388797 80.551563 
L 247.606904 57.305032 
L 248.825011 135.50288 
L 250.043117 228.176223 
L 251.261224 235.262798 
L 252.479331 75.716397 
L 253.697437 176.927287 
L 254.915544 179.321757 
L 256.133651 229.622266 
L 257.351757 116.216449 
L 258.569864 192.187202 
L 259.787971 122.798872 
L 261.006077 117.330855 
L 262.224184 90.192774 
L 263.442291 122.295799 
L 264.660397 189.595571 
L 265.878504 45.066282 
L 267.096611 120.244931 
L 268.314718 203.032726 
L 269.532824 82.022041 
L 270.750931 225.518469 
L 271.969038 241.3152 
L 273.187144 211.866865 
L 274.405251 130.938239 
L 275.623358 190.736227 
L 276.841464 225.490492 
L 278.059571 77.405653 
L 279.277678 112.233151 
L 280.495784 47.001788 
L 281.713891 132.114551 
L 282.931998 108.591169 
L 284.150104 137.256024 
L 285.368211 103.420964 
L 286.586318 109.230986 
L 287.804424 174.651299 
L 289.022531 238.774693 
L 290.240638 205.868896 
L 291.458745 174.949129 
L 292.676851 192.956217 
L 293.894958 143.520483 
L 295.113065 236.913327 
L 296.331171 142.268995 
L 297.549278 184.554 
L 298.767385 175.668351 
L 299.985491 98.825104 
L 301.203598 116.898268 
L 302.421705 54.774926 
L 303.639811 130.792686 
L 304.857918 183.767418 
L 306.076025 166.034996 
L 307.294131 106.510962 
L 308.512238 67.370205 
L 309.730345 50.708205 
L 310.948452 163.123039 
L 312.166558 102.293119 
L 313.384665 78.956993 
L 314.602772 168.570567 
L 315.820878 100.67187 
L 317.038985 97.166618 
L 318.257092 125.741506 
L 319.475198 81.681533 
L 320.693305 207.225133 
L 321.911412 188.004749 
L 323.129518 117.618228 
L 324.347625 220.166177 
L 325.565732 117.084883 
L 326.783838 197.852708 
L 328.001945 45.959736 
L 329.220052 60.905941 
L 330.438159 217.316688 
L 331.656265 240.681001 
L 332.874372 182.610437 
" style="fill:none;stroke:#0000ff;stroke-dasharray:5.55,2.4;stroke-dashoffset:0;stroke-width:1.5;"/>
    <defs>
     <path d="M -3 3 
L 3 -3 
M -3 -3 
L 3 3 
" id="m9d28c6ec7f" style="stroke:#0000ff;"/>
    </defs>
    <g clip-path="url(#p107bc55cb4)">
     <use style="fill:#0000ff;stroke:#0000ff;" x="212.28181" xlink:href="#m9d28c6ec7f" y="61.792399"/>
     <use style="fill:#0000ff;stroke:#0000ff;" x="213.499917" xlink:href="#m9d28c6ec7f" y="50.239227"/>
     <use style="fill:#0000ff;stroke:#0000ff;" x="214.718023" xlink:href="#m9d28c6ec7f" y="213.289415"/>
     <use style="fill:#0000ff;stroke:#0000ff;" x="215.93613" xlink:href="#m9d28c6ec7f" y="170.47071"/>
     <use style="fill:#0000ff;stroke:#0000ff;" x="217.154237" xlink:href="#m9d28c6ec7f" y="59.502165"/>
     <use style="fill:#0000ff;stroke:#0000ff;" x="218.372343" xlink:href="#m9d28c6ec7f" y="228.404478"/>
     <use style="fill:#0000ff;stroke:#0000ff;" x="219.59045" xlink:href="#m9d28c6ec7f" y="112.893034"/>
     <use style="fill:#0000ff;stroke:#0000ff;" x="220.808557" xlink:href="#m9d28c6ec7f" y="115.06249"/>
     <use style="fill:#0000ff;stroke:#0000ff;" x="222.026663" xlink:href="#m9d28c6ec7f" y="118.819699"/>
     <use style="fill:#0000ff;stroke:#0000ff;" x="223.24477" xlink:href="#m9d28c6ec7f" y="67.960187"/>
     <use style="fill:#0000ff;stroke:#0000ff;" x="224.462877" xlink:href="#m9d28c6ec7f" y="166.361575"/>
     <use style="fill:#0000ff;stroke:#0000ff;" x="225.680983" xlink:href="#m9d28c6ec7f" y="159.129503"/>
     <use style="fill:#0000ff;stroke:#0000ff;" x="226.89909" xlink:href="#m9d28c6ec7f" y="205.333857"/>
     <use style="fill:#0000ff;stroke:#0000ff;" x="228.117197" xlink:href="#m9d28c6ec7f" y="229.468882"/>
     <use style="fill:#0000ff;stroke:#0000ff;" x="229.335304" xlink:href="#m9d28c6ec7f" y="212.86393"/>
     <use style="fill:#0000ff;stroke:#0000ff;" x="230.55341" xlink:href="#m9d28c6ec7f" y="48.833533"/>
     <use style="fill:#0000ff;stroke:#0000ff;" x="231.771517" xlink:href="#m9d28c6ec7f" y="66.049102"/>
     <use style="fill:#0000ff;stroke:#0000ff;" x="232.989624" xlink:href="#m9d28c6ec7f" y="104.465529"/>
     <use style="fill:#0000ff;stroke:#0000ff;" x="234.20773" xlink:href="#m9d28c6ec7f" y="43.7472"/>
     <use style="fill:#0000ff;stroke:#0000ff;" x="235.425837" xlink:href="#m9d28c6ec7f" y="132.598094"/>
     <use style="fill:#0000ff;stroke:#0000ff;" x="236.643944" xlink:href="#m9d28c6ec7f" y="220.451719"/>
     <use style="fill:#0000ff;stroke:#0000ff;" x="237.86205" xlink:href="#m9d28c6ec7f" y="161.42618"/>
     <use style="fill:#0000ff;stroke:#0000ff;" x="239.080157" xlink:href="#m9d28c6ec7f" y="66.635946"/>
     <use style="fill:#0000ff;stroke:#0000ff;" x="240.298264" xlink:href="#m9d28c6ec7f" y="51.538895"/>
     <use style="fill:#0000ff;stroke:#0000ff;" x="241.51637" xlink:href="#m9d28c6ec7f" y="175.74568"/>
     <use style="fill:#0000ff;stroke:#0000ff;" x="242.734477" xlink:href="#m9d28c6ec7f" y="46.187428"/>
     <use style="fill:#0000ff;stroke:#0000ff;" x="243.952584" xlink:href="#m9d28c6ec7f" y="125.974278"/>
     <use style="fill:#0000ff;stroke:#0000ff;" x="245.17069" xlink:href="#m9d28c6ec7f" y="235.068903"/>
     <use style="fill:#0000ff;stroke:#0000ff;" x="246.388797" xlink:href="#m9d28c6ec7f" y="80.551563"/>
     <use style="fill:#0000ff;stroke:#0000ff;" x="247.606904" xlink:href="#m9d28c6ec7f" y="57.305032"/>
     <use style="fill:#0000ff;stroke:#0000ff;" x="248.825011" xlink:href="#m9d28c6ec7f" y="135.50288"/>
     <use style="fill:#0000ff;stroke:#0000ff;" x="250.043117" xlink:href="#m9d28c6ec7f" y="228.176223"/>
     <use style="fill:#0000ff;stroke:#0000ff;" x="251.261224" xlink:href="#m9d28c6ec7f" y="235.262798"/>
     <use style="fill:#0000ff;stroke:#0000ff;" x="252.479331" xlink:href="#m9d28c6ec7f" y="75.716397"/>
     <use style="fill:#0000ff;stroke:#0000ff;" x="253.697437" xlink:href="#m9d28c6ec7f" y="176.927287"/>
     <use style="fill:#0000ff;stroke:#0000ff;" x="254.915544" xlink:href="#m9d28c6ec7f" y="179.321757"/>
     <use style="fill:#0000ff;stroke:#0000ff;" x="256.133651" xlink:href="#m9d28c6ec7f" y="229.622266"/>
     <use style="fill:#0000ff;stroke:#0000ff;" x="257.351757" xlink:href="#m9d28c6ec7f" y="116.216449"/>
     <use style="fill:#0000ff;stroke:#0000ff;" x="258.569864" xlink:href="#m9d28c6ec7f" y="192.187202"/>
     <use style="fill:#0000ff;stroke:#0000ff;" x="259.787971" xlink:href="#m9d28c6ec7f" y="122.798872"/>
     <use style="fill:#0000ff;stroke:#0000ff;" x="261.006077" xlink:href="#m9d28c6ec7f" y="117.330855"/>
     <use style="fill:#0000ff;stroke:#0000ff;" x="262.224184" xlink:href="#m9d28c6ec7f" y="90.192774"/>
     <use style="fill:#0000ff;stroke:#0000ff;" x="263.442291" xlink:href="#m9d28c6ec7f" y="122.295799"/>
     <use style="fill:#0000ff;stroke:#0000ff;" x="264.660397" xlink:href="#m9d28c6ec7f" y="189.595571"/>
     <use style="fill:#0000ff;stroke:#0000ff;" x="265.878504" xlink:href="#m9d28c6ec7f" y="45.066282"/>
     <use style="fill:#0000ff;stroke:#0000ff;" x="267.096611" xlink:href="#m9d28c6ec7f" y="120.244931"/>
     <use style="fill:#0000ff;stroke:#0000ff;" x="268.314718" xlink:href="#m9d28c6ec7f" y="203.032726"/>
     <use style="fill:#0000ff;stroke:#0000ff;" x="269.532824" xlink:href="#m9d28c6ec7f" y="82.022041"/>
     <use style="fill:#0000ff;stroke:#0000ff;" x="270.750931" xlink:href="#m9d28c6ec7f" y="225.518469"/>
     <use style="fill:#0000ff;stroke:#0000ff;" x="271.969038" xlink:href="#m9d28c6ec7f" y="241.3152"/>
     <use style="fill:#0000ff;stroke:#0000ff;" x="273.187144" xlink:href="#m9d28c6ec7f" y="211.866865"/>
     <use style="fill:#0000ff;stroke:#0000ff;" x="274.405251" xlink:href="#m9d28c6ec7f" y="130.938239"/>
     <use style="fill:#0000ff;stroke:#0000ff;" x="275.623358" xlink:href="#m9d28c6ec7f" y="190.736227"/>
     <use style="fill:#0000ff;stroke:#0000ff;" x="276.841464" xlink:href="#m9d28c6ec7f" y="225.490492"/>
     <use style="fill:#0000ff;stroke:#0000ff;" x="278.059571" xlink:href="#m9d28c6ec7f" y="77.405653"/>
     <use style="fill:#0000ff;stroke:#0000ff;" x="279.277678" xlink:href="#m9d28c6ec7f" y="112.233151"/>
     <use style="fill:#0000ff;stroke:#0000ff;" x="280.495784" xlink:href="#m9d28c6ec7f" y="47.001788"/>
     <use style="fill:#0000ff;stroke:#0000ff;" x="281.713891" xlink:href="#m9d28c6ec7f" y="132.114551"/>
     <use style="fill:#0000ff;stroke:#0000ff;" x="282.931998" xlink:href="#m9d28c6ec7f" y="108.591169"/>
     <use style="fill:#0000ff;stroke:#0000ff;" x="284.150104" xlink:href="#m9d28c6ec7f" y="137.256024"/>
     <use style="fill:#0000ff;stroke:#0000ff;" x="285.368211" xlink:href="#m9d28c6ec7f" y="103.420964"/>
     <use style="fill:#0000ff;stroke:#0000ff;" x="286.586318" xlink:href="#m9d28c6ec7f" y="109.230986"/>
     <use style="fill:#0000ff;stroke:#0000ff;" x="287.804424" xlink:href="#m9d28c6ec7f" y="174.651299"/>
     <use style="fill:#0000ff;stroke:#0000ff;" x="289.022531" xlink:href="#m9d28c6ec7f" y="238.774693"/>
     <use style="fill:#0000ff;stroke:#0000ff;" x="290.240638" xlink:href="#m9d28c6ec7f" y="205.868896"/>
     <use style="fill:#0000ff;stroke:#0000ff;" x="291.458745" xlink:href="#m9d28c6ec7f" y="174.949129"/>
     <use style="fill:#0000ff;stroke:#0000ff;" x="292.676851" xlink:href="#m9d28c6ec7f" y="192.956217"/>
     <use style="fill:#0000ff;stroke:#0000ff;" x="293.894958" xlink:href="#m9d28c6ec7f" y="143.520483"/>
     <use style="fill:#0000ff;stroke:#0000ff;" x="295.113065" xlink:href="#m9d28c6ec7f" y="236.913327"/>
     <use style="fill:#0000ff;stroke:#0000ff;" x="296.331171" xlink:href="#m9d28c6ec7f" y="142.268995"/>
     <use style="fill:#0000ff;stroke:#0000ff;" x="297.549278" xlink:href="#m9d28c6ec7f" y="184.554"/>
     <use style="fill:#0000ff;stroke:#0000ff;" x="298.767385" xlink:href="#m9d28c6ec7f" y="175.668351"/>
     <use style="fill:#0000ff;stroke:#0000ff;" x="299.985491" xlink:href="#m9d28c6ec7f" y="98.825104"/>
     <use style="fill:#0000ff;stroke:#0000ff;" x="301.203598" xlink:href="#m9d28c6ec7f" y="116.898268"/>
     <use style="fill:#0000ff;stroke:#0000ff;" x="302.421705" xlink:href="#m9d28c6ec7f" y="54.774926"/>
     <use style="fill:#0000ff;stroke:#0000ff;" x="303.639811" xlink:href="#m9d28c6ec7f" y="130.792686"/>
     <use style="fill:#0000ff;stroke:#0000ff;" x="304.857918" xlink:href="#m9d28c6ec7f" y="183.767418"/>
     <use style="fill:#0000ff;stroke:#0000ff;" x="306.076025" xlink:href="#m9d28c6ec7f" y="166.034996"/>
     <use style="fill:#0000ff;stroke:#0000ff;" x="307.294131" xlink:href="#m9d28c6ec7f" y="106.510962"/>
     <use style="fill:#0000ff;stroke:#0000ff;" x="308.512238" xlink:href="#m9d28c6ec7f" y="67.370205"/>
     <use style="fill:#0000ff;stroke:#0000ff;" x="309.730345" xlink:href="#m9d28c6ec7f" y="50.708205"/>
     <use style="fill:#0000ff;stroke:#0000ff;" x="310.948452" xlink:href="#m9d28c6ec7f" y="163.123039"/>
     <use style="fill:#0000ff;stroke:#0000ff;" x="312.166558" xlink:href="#m9d28c6ec7f" y="102.293119"/>
     <use style="fill:#0000ff;stroke:#0000ff;" x="313.384665" xlink:href="#m9d28c6ec7f" y="78.956993"/>
     <use style="fill:#0000ff;stroke:#0000ff;" x="314.602772" xlink:href="#m9d28c6ec7f" y="168.570567"/>
     <use style="fill:#0000ff;stroke:#0000ff;" x="315.820878" xlink:href="#m9d28c6ec7f" y="100.67187"/>
     <use style="fill:#0000ff;stroke:#0000ff;" x="317.038985" xlink:href="#m9d28c6ec7f" y="97.166618"/>
     <use style="fill:#0000ff;stroke:#0000ff;" x="318.257092" xlink:href="#m9d28c6ec7f" y="125.741506"/>
     <use style="fill:#0000ff;stroke:#0000ff;" x="319.475198" xlink:href="#m9d28c6ec7f" y="81.681533"/>
     <use style="fill:#0000ff;stroke:#0000ff;" x="320.693305" xlink:href="#m9d28c6ec7f" y="207.225133"/>
     <use style="fill:#0000ff;stroke:#0000ff;" x="321.911412" xlink:href="#m9d28c6ec7f" y="188.004749"/>
     <use style="fill:#0000ff;stroke:#0000ff;" x="323.129518" xlink:href="#m9d28c6ec7f" y="117.618228"/>
     <use style="fill:#0000ff;stroke:#0000ff;" x="324.347625" xlink:href="#m9d28c6ec7f" y="220.166177"/>
     <use style="fill:#0000ff;stroke:#0000ff;" x="325.565732" xlink:href="#m9d28c6ec7f" y="117.084883"/>
     <use style="fill:#0000ff;stroke:#0000ff;" x="326.783838" xlink:href="#m9d28c6ec7f" y="197.852708"/>
     <use style="fill:#0000ff;stroke:#0000ff;" x="328.001945" xlink:href="#m9d28c6ec7f" y="45.959736"/>
     <use style="fill:#0000ff;stroke:#0000ff;" x="329.220052" xlink:href="#m9d28c6ec7f" y="60.905941"/>
     <use style="fill:#0000ff;stroke:#0000ff;" x="330.438159" xlink:href="#m9d28c6ec7f" y="217.316688"/>
     <use style="fill:#0000ff;stroke:#0000ff;" x="331.656265" xlink:href="#m9d28c6ec7f" y="240.681001"/>
     <use style="fill:#0000ff;stroke:#0000ff;" x="332.874372" xlink:href="#m9d28c6ec7f" y="182.610437"/>
    </g>
   </g>
   <g id="patch_8">
    <path d="M 206.252182 251.1936 
L 206.252182 33.8688 
" style="fill:none;stroke:#000000;stroke-linecap:square;stroke-linejoin:miter;stroke-width:0.8;"/>
   </g>
   <g id="patch_9">
    <path d="M 338.904 251.1936 
L 338.904 33.8688 
" style="fill:none;stroke:#000000;stroke-linecap:square;stroke-linejoin:miter;stroke-width:0.8;"/>
   </g>
   <g id="patch_10">
    <path d="M 206.252182 251.1936 
L 338.904 251.1936 
" style="fill:none;stroke:#000000;stroke-linecap:square;stroke-linejoin:miter;stroke-width:0.8;"/>
   </g>
   <g id="patch_11">
    <path d="M 206.252182 33.8688 
L 338.904 33.8688 
" style="fill:none;stroke:#000000;stroke-linecap:square;stroke-linejoin:miter;stroke-width:0.8;"/>
   </g>
   <g id="text_20">
    <!-- Tytuł 2 -->
    <g transform="translate(251.791841 27.8688)scale(0.12 -0.12)">
     <use xlink:href="#DejaVuSans-84"/>
     <use x="60.849609" xlink:href="#DejaVuSans-121"/>
     <use x="120.029297" xlink:href="#DejaVuSans-116"/>
     <use x="159.238281" xlink:href="#DejaVuSans-117"/>
     <use x="222.617188" xlink:href="#DejaVuSans-322"/>
     <use x="251.035156" xlink:href="#DejaVuSans-32"/>
     <use x="282.822266" xlink:href="#DejaVuSans-50"/>
    </g>
   </g>
  </g>
  <g id="text_21">
   <!-- suptitle: SUPER TYTUŁ -->
   <defs>
    <path d="M 44.28125 53.078125 
L 44.28125 44.578125 
Q 40.484375 46.53125 36.375 47.5 
Q 32.28125 48.484375 27.875 48.484375 
Q 21.1875 48.484375 17.84375 46.4375 
Q 14.5 44.390625 14.5 40.28125 
Q 14.5 37.15625 16.890625 35.375 
Q 19.28125 33.59375 26.515625 31.984375 
L 29.59375 31.296875 
Q 39.15625 29.25 43.1875 25.515625 
Q 47.21875 21.78125 47.21875 15.09375 
Q 47.21875 7.46875 41.1875 3.015625 
Q 35.15625 -1.421875 24.609375 -1.421875 
Q 20.21875 -1.421875 15.453125 -0.5625 
Q 10.6875 0.296875 5.421875 2 
L 5.421875 11.28125 
Q 10.40625 8.6875 15.234375 7.390625 
Q 20.0625 6.109375 24.8125 6.109375 
Q 31.15625 6.109375 34.5625 8.28125 
Q 37.984375 10.453125 37.984375 14.40625 
Q 37.984375 18.0625 35.515625 20.015625 
Q 33.0625 21.96875 24.703125 23.78125 
L 21.578125 24.515625 
Q 13.234375 26.265625 9.515625 29.90625 
Q 5.8125 33.546875 5.8125 39.890625 
Q 5.8125 47.609375 11.28125 51.796875 
Q 16.75 56 26.8125 56 
Q 31.78125 56 36.171875 55.265625 
Q 40.578125 54.546875 44.28125 53.078125 
z
" id="DejaVuSans-115"/>
    <path d="M 18.109375 8.203125 
L 18.109375 -20.796875 
L 9.078125 -20.796875 
L 9.078125 54.6875 
L 18.109375 54.6875 
L 18.109375 46.390625 
Q 20.953125 51.265625 25.265625 53.625 
Q 29.59375 56 35.59375 56 
Q 45.5625 56 51.78125 48.09375 
Q 58.015625 40.1875 58.015625 27.296875 
Q 58.015625 14.40625 51.78125 6.484375 
Q 45.5625 -1.421875 35.59375 -1.421875 
Q 29.59375 -1.421875 25.265625 0.953125 
Q 20.953125 3.328125 18.109375 8.203125 
z
M 48.6875 27.296875 
Q 48.6875 37.203125 44.609375 42.84375 
Q 40.53125 48.484375 33.40625 48.484375 
Q 26.265625 48.484375 22.1875 42.84375 
Q 18.109375 37.203125 18.109375 27.296875 
Q 18.109375 17.390625 22.1875 11.75 
Q 26.265625 6.109375 33.40625 6.109375 
Q 40.53125 6.109375 44.609375 11.75 
Q 48.6875 17.390625 48.6875 27.296875 
z
" id="DejaVuSans-112"/>
    <path d="M 9.421875 54.6875 
L 18.40625 54.6875 
L 18.40625 0 
L 9.421875 0 
z
M 9.421875 75.984375 
L 18.40625 75.984375 
L 18.40625 64.59375 
L 9.421875 64.59375 
z
" id="DejaVuSans-105"/>
    <path d="M 9.421875 75.984375 
L 18.40625 75.984375 
L 18.40625 0 
L 9.421875 0 
z
" id="DejaVuSans-108"/>
    <path d="M 56.203125 29.59375 
L 56.203125 25.203125 
L 14.890625 25.203125 
Q 15.484375 15.921875 20.484375 11.0625 
Q 25.484375 6.203125 34.421875 6.203125 
Q 39.59375 6.203125 44.453125 7.46875 
Q 49.3125 8.734375 54.109375 11.28125 
L 54.109375 2.78125 
Q 49.265625 0.734375 44.1875 -0.34375 
Q 39.109375 -1.421875 33.890625 -1.421875 
Q 20.796875 -1.421875 13.15625 6.1875 
Q 5.515625 13.8125 5.515625 26.8125 
Q 5.515625 40.234375 12.765625 48.109375 
Q 20.015625 56 32.328125 56 
Q 43.359375 56 49.78125 48.890625 
Q 56.203125 41.796875 56.203125 29.59375 
z
M 47.21875 32.234375 
Q 47.125 39.59375 43.09375 43.984375 
Q 39.0625 48.390625 32.421875 48.390625 
Q 24.90625 48.390625 20.390625 44.140625 
Q 15.875 39.890625 15.1875 32.171875 
z
" id="DejaVuSans-101"/>
    <path d="M 11.71875 12.40625 
L 22.015625 12.40625 
L 22.015625 0 
L 11.71875 0 
z
M 11.71875 51.703125 
L 22.015625 51.703125 
L 22.015625 39.3125 
L 11.71875 39.3125 
z
" id="DejaVuSans-58"/>
    <path d="M 53.515625 70.515625 
L 53.515625 60.890625 
Q 47.90625 63.578125 42.921875 64.890625 
Q 37.9375 66.21875 33.296875 66.21875 
Q 25.25 66.21875 20.875 63.09375 
Q 16.5 59.96875 16.5 54.203125 
Q 16.5 49.359375 19.40625 46.890625 
Q 22.3125 44.4375 30.421875 42.921875 
L 36.375 41.703125 
Q 47.40625 39.59375 52.65625 34.296875 
Q 57.90625 29 57.90625 20.125 
Q 57.90625 9.515625 50.796875 4.046875 
Q 43.703125 -1.421875 29.984375 -1.421875 
Q 24.8125 -1.421875 18.96875 -0.25 
Q 13.140625 0.921875 6.890625 3.21875 
L 6.890625 13.375 
Q 12.890625 10.015625 18.65625 8.296875 
Q 24.421875 6.59375 29.984375 6.59375 
Q 38.421875 6.59375 43.015625 9.90625 
Q 47.609375 13.234375 47.609375 19.390625 
Q 47.609375 24.75 44.3125 27.78125 
Q 41.015625 30.8125 33.5 32.328125 
L 27.484375 33.5 
Q 16.453125 35.6875 11.515625 40.375 
Q 6.59375 45.0625 6.59375 53.421875 
Q 6.59375 63.09375 13.40625 68.65625 
Q 20.21875 74.21875 32.171875 74.21875 
Q 37.3125 74.21875 42.625 73.28125 
Q 47.953125 72.359375 53.515625 70.515625 
z
" id="DejaVuSans-83"/>
    <path d="M 8.6875 72.90625 
L 18.609375 72.90625 
L 18.609375 28.609375 
Q 18.609375 16.890625 22.84375 11.734375 
Q 27.09375 6.59375 36.625 6.59375 
Q 46.09375 6.59375 50.34375 11.734375 
Q 54.59375 16.890625 54.59375 28.609375 
L 54.59375 72.90625 
L 64.5 72.90625 
L 64.5 27.390625 
Q 64.5 13.140625 57.4375 5.859375 
Q 50.390625 -1.421875 36.625 -1.421875 
Q 22.796875 -1.421875 15.734375 5.859375 
Q 8.6875 13.140625 8.6875 27.390625 
z
" id="DejaVuSans-85"/>
    <path d="M 19.671875 64.796875 
L 19.671875 37.40625 
L 32.078125 37.40625 
Q 38.96875 37.40625 42.71875 40.96875 
Q 46.484375 44.53125 46.484375 51.125 
Q 46.484375 57.671875 42.71875 61.234375 
Q 38.96875 64.796875 32.078125 64.796875 
z
M 9.8125 72.90625 
L 32.078125 72.90625 
Q 44.34375 72.90625 50.609375 67.359375 
Q 56.890625 61.8125 56.890625 51.125 
Q 56.890625 40.328125 50.609375 34.8125 
Q 44.34375 29.296875 32.078125 29.296875 
L 19.671875 29.296875 
L 19.671875 0 
L 9.8125 0 
z
" id="DejaVuSans-80"/>
    <path d="M 9.8125 72.90625 
L 55.90625 72.90625 
L 55.90625 64.59375 
L 19.671875 64.59375 
L 19.671875 43.015625 
L 54.390625 43.015625 
L 54.390625 34.71875 
L 19.671875 34.71875 
L 19.671875 8.296875 
L 56.78125 8.296875 
L 56.78125 0 
L 9.8125 0 
z
" id="DejaVuSans-69"/>
    <path d="M 44.390625 34.1875 
Q 47.5625 33.109375 50.5625 29.59375 
Q 53.5625 26.078125 56.59375 19.921875 
L 66.609375 0 
L 56 0 
L 46.6875 18.703125 
Q 43.0625 26.03125 39.671875 28.421875 
Q 36.28125 30.8125 30.421875 30.8125 
L 19.671875 30.8125 
L 19.671875 0 
L 9.8125 0 
L 9.8125 72.90625 
L 32.078125 72.90625 
Q 44.578125 72.90625 50.734375 67.671875 
Q 56.890625 62.453125 56.890625 51.90625 
Q 56.890625 45.015625 53.6875 40.46875 
Q 50.484375 35.9375 44.390625 34.1875 
z
M 19.671875 64.796875 
L 19.671875 38.921875 
L 32.078125 38.921875 
Q 39.203125 38.921875 42.84375 42.21875 
Q 46.484375 45.515625 46.484375 51.90625 
Q 46.484375 58.296875 42.84375 61.546875 
Q 39.203125 64.796875 32.078125 64.796875 
z
" id="DejaVuSans-82"/>
    <path d="M -0.203125 72.90625 
L 10.40625 72.90625 
L 30.609375 42.921875 
L 50.6875 72.90625 
L 61.28125 72.90625 
L 35.5 34.71875 
L 35.5 0 
L 25.59375 0 
L 25.59375 34.71875 
z
" id="DejaVuSans-89"/>
    <path d="M 10.296875 72.90625 
L 20.21875 72.90625 
L 20.21875 42.828125 
L 35.5 53.515625 
L 39.40625 48.09375 
L 20.21875 34.71875 
L 20.21875 8.296875 
L 55.71875 8.296875 
L 55.71875 0 
L 10.296875 0 
L 10.296875 27.875 
L 3.078125 22.703125 
L -0.6875 28.078125 
L 10.296875 35.796875 
z
" id="DejaVuSans-321"/>
   </defs>
   <g transform="translate(121.441875 14.762925)scale(0.12 -0.12)">
    <use xlink:href="#DejaVuSans-115"/>
    <use x="52.099609" xlink:href="#DejaVuSans-117"/>
    <use x="115.478516" xlink:href="#DejaVuSans-112"/>
    <use x="178.955078" xlink:href="#DejaVuSans-116"/>
    <use x="218.164062" xlink:href="#DejaVuSans-105"/>
    <use x="245.947266" xlink:href="#DejaVuSans-116"/>
    <use x="285.15625" xlink:href="#DejaVuSans-108"/>
    <use x="312.939453" xlink:href="#DejaVuSans-101"/>
    <use x="374.462891" xlink:href="#DejaVuSans-58"/>
    <use x="408.154297" xlink:href="#DejaVuSans-32"/>
    <use x="439.941406" xlink:href="#DejaVuSans-83"/>
    <use x="503.417969" xlink:href="#DejaVuSans-85"/>
    <use x="576.611328" xlink:href="#DejaVuSans-80"/>
    <use x="636.914062" xlink:href="#DejaVuSans-69"/>
    <use x="700.097656" xlink:href="#DejaVuSans-82"/>
    <use x="769.580078" xlink:href="#DejaVuSans-32"/>
    <use x="801.367188" xlink:href="#DejaVuSans-84"/>
    <use x="862.451172" xlink:href="#DejaVuSans-89"/>
    <use x="923.535156" xlink:href="#DejaVuSans-84"/>
    <use x="984.619141" xlink:href="#DejaVuSans-85"/>
    <use x="1057.8125" xlink:href="#DejaVuSans-321"/>
   </g>
  </g>
 </g>
 <defs>
  <clipPath id="p826b1358ce">
   <rect height="217.3248" width="132.651818" x="47.07" y="33.8688"/>
  </clipPath>
  <clipPath id="p107bc55cb4">
   <rect height="217.3248" width="132.651818" x="206.252182" y="33.8688"/>
  </clipPath>
 </defs>
</svg>
